<svg width="85" height="51" viewBox="0 0 85 51" fill="none" xmlns="http://www.w3.org/2000/svg">
<path id="Subtract" fill-rule="evenodd" clip-rule="evenodd" d="M12.2806 46.976C16.3339 49.024 21.0913 50.048 26.5526 50.048C31.9713 50.048 36.6859 49.024 40.6966 46.976C44.7499 44.8853 47.8859 41.9627 50.1046 38.208C51.555 35.7535 52.5313 33.0255 53.0336 30.024H39.5972C39.0215 32.2325 38.0226 34.0858 36.6006 35.584C34.2113 38.0587 30.8619 39.296 26.5526 39.296C22.2433 39.296 18.8726 38.0587 16.4406 35.584C14.9932 34.0858 13.9765 32.2325 13.3905 30.024H0C0.492582 33.0255 1.45012 35.7535 2.87261 38.208C5.09128 41.9627 8.22728 44.8853 12.2806 46.976ZM0.183367 19.024C0.713312 16.4138 1.60973 14.0191 2.87261 11.84C5.09128 8.08533 8.22728 5.184 12.2806 3.136C16.3339 1.04533 21.0913 0 26.5526 0C31.9713 0 36.6859 1.04533 40.6966 3.136C44.7499 5.184 47.8859 8.08533 50.1046 11.84C51.3923 14.0191 52.3063 16.4138 52.8466 19.024H39.3102C38.7129 17.2363 37.8097 15.7163 36.6006 14.464C34.2113 11.9893 30.8619 10.752 26.5526 10.752C22.2433 10.752 18.8726 11.9893 16.4406 14.464C15.2099 15.7163 14.2906 17.2363 13.6827 19.024H0.183367ZM71.2821 30.024V49.024H84.4021V30.024H71.2821ZM84.4021 19.024H71.2821V12.4122L56.7541 14.976V4.736L74.6741 1.024H84.4021V19.024Z" fill="#292929"/>
</svg>
