<svg width="108" height="50" viewBox="0 0 108 50" fill="none" xmlns="http://www.w3.org/2000/svg">
<path id="Subtract" fill-rule="evenodd" clip-rule="evenodd" d="M79.312 29.1028V49.3432H59.6995V40.1272L79.312 29.1028ZM90.312 21.815C90.8045 21.3296 91.203 20.863 91.5075 20.4152C92.2755 19.3486 92.6595 18.2179 92.6595 17.0232C92.6595 15.7006 92.2968 14.5699 91.5715 13.6312C91.2381 13.152 90.8183 12.7237 90.312 12.3462V0.890451C92.1188 1.2307 93.7973 1.72296 95.3475 2.36722C98.6755 3.68989 101.257 5.54589 103.091 7.93522C104.926 10.3246 105.843 13.0979 105.843 16.2552C105.843 18.6872 105.182 20.9699 103.859 23.1032C102.537 25.1939 100.467 27.2632 97.6515 29.3112C95.6478 30.7381 93.2013 32.2189 90.312 33.7538V21.815ZM90.312 38.8472V49.3432H107.188V38.8472H90.312ZM79.312 0.563232V10.8737C78.449 11.0616 77.6715 11.3194 76.9795 11.6472C75.3582 12.3726 74.1422 13.3539 73.3315 14.5912C72.5208 15.7859 72.0302 17.1299 71.8595 18.6232H58.6755C58.9315 14.8686 60.1688 11.6259 62.3875 8.89522C64.6062 6.12189 67.5502 4.00989 71.2195 2.55922C73.7064 1.55876 76.4038 0.893435 79.312 0.563232ZM41.088 47.2952C38.464 48.6351 35.5387 49.5367 32.312 50V38.8196C34.1489 38.2043 35.7089 37.2322 36.992 35.9032C39.3813 33.3859 40.576 29.8659 40.576 25.3432C40.576 20.7779 39.3813 17.2579 36.992 14.7832C35.7089 13.4543 34.1489 12.4821 32.312 11.8669V0.694103C35.5387 1.16703 38.464 2.0874 41.088 3.45522C45.1413 5.50322 48.2773 8.40455 50.496 12.1592C52.7147 15.9139 53.824 20.3086 53.824 25.3432C53.824 30.3779 52.7147 34.7726 50.496 38.5272C48.2773 42.2819 45.1413 45.2046 41.088 47.2952ZM16.832 14.7832C18.0787 13.5147 19.572 12.5713 21.312 11.953V0.72678C18.1441 1.20876 15.2641 2.11824 12.672 3.45522C8.61867 5.50322 5.48267 8.40455 3.264 12.1592C1.088 15.9139 0 20.3086 0 25.3432C0 30.3779 1.088 34.7726 3.264 38.5272C5.48267 42.2819 8.61867 45.2046 12.672 47.2952C15.2641 48.6049 18.1441 49.4958 21.312 49.968V38.7335C19.572 38.1152 18.0787 37.1718 16.832 35.9032C14.4 33.3859 13.184 29.8659 13.184 25.3432C13.184 20.7779 14.4 17.2579 16.832 14.7832Z" fill="#292929"/>
</svg>
