<svg width="108" height="51" viewBox="0 0 108 51" fill="none" xmlns="http://www.w3.org/2000/svg">
<path id="Subtract" fill-rule="evenodd" clip-rule="evenodd" d="M3.77144 11.9729C3.59727 12.2413 3.42813 12.5144 3.264 12.7921C1.088 16.5468 0 20.9415 0 25.9761C0 31.0108 1.088 35.4055 3.264 39.1601C5.48267 42.9148 8.61867 45.8375 12.672 47.9282C16.7253 49.9762 21.4827 51.0001 26.944 51.0001C32.3627 51.0001 37.0773 49.9762 41.088 47.9282C45.1413 45.8375 48.2773 42.9148 50.496 39.1601C51.2788 37.8354 51.9235 36.431 52.4301 34.9469L40.343 29.24C39.8891 32.2286 38.7721 34.6607 36.992 36.5361C34.6027 39.0108 31.2533 40.2481 26.944 40.2481C22.6347 40.2481 19.264 39.0108 16.832 36.5361C14.4 34.0188 13.184 30.4988 13.184 25.9761C13.184 22.5197 13.881 19.6624 15.2751 17.4043L3.77144 11.9729ZM37.1248 15.5561C37.081 15.5091 37.0367 15.4624 36.992 15.4161C35.0443 13.3988 32.4586 12.2038 29.2349 11.8309L12.7505 4.04786C16.7867 1.98405 21.5179 0.952148 26.944 0.952148C32.3627 0.952148 37.0773 1.99748 41.088 4.08815C45.1413 6.13615 48.2773 9.03748 50.496 12.7921C52.3265 15.8899 53.4019 19.4234 53.7221 23.3925L37.1248 15.5561ZM58.8875 37.9957C59.4232 39.8637 60.3126 41.5745 61.5555 43.1282C63.6462 45.6455 66.5475 47.5868 70.2595 48.9522C73.9715 50.3175 78.3235 51.0001 83.3155 51.0001C84.3328 51.0001 85.3185 50.9753 86.2729 50.9256L58.8875 37.9957ZM101.989 46.1815L89.1442 40.1169C89.8877 39.8935 90.5475 39.6173 91.1235 39.2882C92.9582 38.2641 93.8755 36.8348 93.8755 35.0001C93.8755 33.9335 93.5768 33.0375 92.9795 32.3121C92.4248 31.5868 91.4222 31.0535 89.9715 30.7121C88.5208 30.3281 86.4942 30.1362 83.8915 30.1362H75.6355V21.1761H83.8915C87.2622 21.1761 89.6088 20.7281 90.9315 19.8321C92.2968 18.9361 92.9795 17.7415 92.9795 16.2481C92.9795 14.6268 92.1902 13.3681 90.6115 12.4721C89.0755 11.5761 86.7502 11.1281 83.6355 11.1281C80.3075 11.1281 77.7475 11.6828 75.9555 12.7921C74.1635 13.9015 73.0968 15.4588 72.7555 17.4641H59.5075C59.7635 14.4348 60.8515 11.6828 62.7715 9.20815C64.6915 6.69081 67.4648 4.68548 71.0915 3.19215C74.7182 1.69882 79.1342 0.952148 84.3395 0.952148C88.7768 0.952148 92.6382 1.50682 95.9235 2.61615C99.2515 3.72548 101.812 5.28281 103.604 7.28815C105.438 9.29348 106.355 11.6615 106.355 14.3921C106.355 16.5255 105.694 18.4881 104.371 20.2801C103.091 22.0721 101.044 23.5015 98.2275 24.5681C97.5983 24.8005 96.9252 25.0053 96.2082 25.1827C96.8632 25.2999 97.4937 25.4364 98.0995 25.5921C101.086 26.3601 103.369 27.6188 104.948 29.3681C106.569 31.1175 107.38 33.3362 107.38 36.0242C107.38 38.9255 106.441 41.5068 104.563 43.7682C103.834 44.6467 102.976 45.4511 101.989 46.1815Z" fill="#292929"/>
</svg>
