<svg width="20" height="20" viewBox="0 0 20 20" fill="none" xmlns="http://www.w3.org/2000/svg">
<g id="Group 427319228">
<path id="Vector" d="M20 10C20 4.47715 15.5228 0 10 0C4.47715 0 0 4.47715 0 10C0 14.9913 3.65685 19.1283 8.4375 19.8785V12.8906H5.89844V10H8.4375V7.79688C8.4375 5.29062 9.93042 3.90625 12.2146 3.90625C13.3087 3.90625 14.4531 4.10156 14.4531 4.10156V6.5625H13.1921C11.9499 6.5625 11.5625 7.33334 11.5625 8.12417V10H14.3359L13.8926 12.8906H11.5625V19.8785C16.3431 19.1283 20 14.9913 20 10Z" fill="#8E8E8E"/>
<path id="Vector_2" d="M13.8926 12.8905L14.3359 9.99988H11.5625V8.12403C11.5625 7.33322 11.9499 6.56237 13.1921 6.56237H14.4531V4.10144C14.4531 4.10144 13.3087 3.90613 12.2146 3.90613C9.93042 3.90613 8.43749 5.29049 8.43749 7.79675V9.99988H5.89844V12.8905H8.43749V19.8784C8.95439 19.9594 9.4768 20 10 19.9999C10.5316 19.9999 11.0534 19.9583 11.5625 19.8784V12.8905H13.8926Z" fill="#FCFCFC"/>
</g>
</svg>
