<svg width="1400" height="183" viewBox="0 0 1400 183" fill="none" xmlns="http://www.w3.org/2000/svg">
<g filter="url(#filter0_b_851_639)">
<path d="M3.18667 3.96094H0V7.14761V172.168V175.355H3.18667H38.7573H41.944V172.168V7.14761V3.96094H38.7573H3.18667Z" fill="#838383" fill-opacity="0.2"/>
<path d="M444.419 5.51165L443.472 3.96143H441.577H421.682H419.959L419.012 5.42597L339.861 131.688L260.796 5.42597L259.848 3.96143H258.04H238.144H236.249L235.388 5.51165L140.476 170.532L137.72 175.355H143.318H183.453H185.348L186.296 173.719L249.169 65.3703L318.329 173.891L319.276 175.355H321.085H358.722H360.445L361.392 173.891L430.639 65.3703L493.512 173.719L494.373 175.355H496.268H536.489H542.001L539.245 170.532L444.419 5.51165Z" fill="#838383" fill-opacity="0.2"/>
<path d="M749.136 5.25355L748.188 3.96143H746.552H723.9H722.178L721.23 5.25355L600.48 170.187L596.69 175.355H603.064H644.922H646.472L647.419 174.063L683.248 127.21H760.074H766.189L762.744 122.215L742.849 92.9311L741.901 91.4671H740.179H710.379L735.183 58.9969L819.76 174.063L820.794 175.355H822.344H866.958H873.245L869.542 170.187L749.136 5.25355Z" fill="#838383" fill-opacity="0.2"/>
<path d="M1035.68 38.9304C1055.49 38.9304 1072.72 51.1604 1080.38 62.5292L1081.33 63.9938H1128.61L1127.06 59.6874C1113.97 22.6527 1080.55 0.948188 1035.34 0.0869141C1034.56 0.0869141 1033.7 0.0869141 1032.92 0.0869141C979.612 0.0869141 939.391 41.342 939.391 96.0329C939.391 143.747 982.54 182.505 1035.68 182.505C1078.66 182.505 1112.85 161.404 1127.06 126.177L1127.32 125.575V91.6403H1029.74L1033.01 96.6359L1052.99 126.78L1053.94 128.244H1075.47C1066.26 137.805 1051.36 143.748 1035.68 143.748C1010.96 143.748 983.402 123.077 983.402 93.363C983.402 66.4051 1001.32 39.1029 1035.68 39.1029V38.9304Z" fill="#838383" fill-opacity="0.2"/>
<path d="M1304.14 0C1251.26 0 1208.28 40.738 1208.28 90.778C1208.28 140.818 1251.26 182.331 1304.14 182.331C1357.02 182.331 1400 141.249 1400 90.778C1400 40.3074 1357.02 0 1304.14 0ZM1304.14 143.488C1274.77 143.488 1252.64 120.836 1252.64 90.778C1252.64 60.7196 1275.29 38.843 1304.14 38.843C1332.99 38.843 1355.64 62.0976 1355.64 90.778C1355.64 119.458 1332.99 143.488 1304.14 143.488Z" fill="#838383" fill-opacity="0.2"/>
</g>
<defs>
<filter id="filter0_b_851_639" x="-59" y="-59" width="1518" height="300.505" filterUnits="userSpaceOnUse" color-interpolation-filters="sRGB">
<feFlood flood-opacity="0" result="BackgroundImageFix"/>
<feGaussianBlur in="BackgroundImageFix" stdDeviation="29.5"/>
<feComposite in2="SourceAlpha" operator="in" result="effect1_backgroundBlur_851_639"/>
<feBlend mode="normal" in="SourceGraphic" in2="effect1_backgroundBlur_851_639" result="shape"/>
</filter>
</defs>
</svg>
