<svg width="20" height="20" viewBox="0 0 20 20" fill="none" xmlns="http://www.w3.org/2000/svg">
<path id="Vector" d="M17.0415 17.0413H14.0781V12.4004C14.0781 11.2937 14.0583 9.86912 12.5367 9.86912C10.9933 9.86912 10.7571 11.0749 10.7571 12.3199V17.041H7.79363V7.49741H10.6386V8.80165H10.6784C10.9631 8.31485 11.3745 7.91439 11.8688 7.64291C12.3631 7.37143 12.9218 7.23911 13.4854 7.26003C16.489 7.26003 17.0428 9.23568 17.0428 11.8059L17.0415 17.0413ZM4.44984 6.19287C4.10971 6.19293 3.7772 6.09213 3.49435 5.90321C3.21151 5.71429 2.99104 5.44574 2.86082 5.13153C2.7306 4.81731 2.69648 4.47153 2.76278 4.13792C2.82907 3.80431 2.99281 3.49785 3.23328 3.2573C3.47374 3.01675 3.78014 2.8529 4.11373 2.78649C4.44731 2.72007 4.7931 2.75406 5.10737 2.88417C5.42163 3.01428 5.69026 3.23465 5.87928 3.51743C6.0683 3.80021 6.16922 4.13268 6.16928 4.47281C6.16932 4.69865 6.12488 4.92229 6.03849 5.13096C5.9521 5.33962 5.82546 5.52923 5.66579 5.68895C5.50613 5.84867 5.31657 5.97538 5.10794 6.06184C4.8993 6.1483 4.67568 6.19282 4.44984 6.19287ZM5.93158 17.0413H2.96502V7.49741H5.93158V17.0413ZM18.5189 0.00136213H1.47587C1.08904 -0.00300324 0.716305 0.146386 0.439564 0.416701C0.162823 0.687017 0.00472104 1.05614 0 1.44297V18.5567C0.00455946 18.9438 0.16256 19.3131 0.439291 19.5837C0.716023 19.8543 1.08885 20.004 1.47587 19.9999H18.5189C18.9067 20.0047 19.2806 19.8555 19.5584 19.5849C19.8363 19.3143 19.9953 18.9445 20.0007 18.5567V1.44173C19.9952 1.05414 19.836 0.684596 19.5582 0.414287C19.2803 0.143978 18.9065 -0.00498453 18.5189 0.000127351" fill="#8E8E8E"/>
</svg>
