<svg width="183" height="24" viewBox="0 0 183 24" fill="none" xmlns="http://www.w3.org/2000/svg">
<path d="M0.416543 0.518066H0V0.93461V22.5051V22.9217H0.416543H5.06613H5.48267V22.5051V0.93461V0.518066H5.06613H0.416543Z" fill="#292929"/>
<path d="M58.092 0.720215L57.9681 0.517578H57.7204H55.1198H54.8947L54.7708 0.709015L44.4246 17.2133L34.0897 0.709015L33.9659 0.517578H33.7295H31.1289H30.8812L30.7686 0.720215L18.3622 22.2907L18.002 22.9212H18.7337H23.98H24.2277L24.3515 22.7073L32.5699 8.54459L41.6101 22.7298L41.734 22.9212H41.9704H46.8902H47.1153L47.2392 22.7298L56.2907 8.54459L64.509 22.7073L64.6216 22.9212H64.8693H70.1268H70.8473L70.4871 22.2907L58.092 0.720215Z" fill="#292929"/>
<path d="M97.9229 0.686477L97.799 0.517578H97.5851H94.6243H94.3991L94.2753 0.686477L78.4915 22.2456L77.9961 22.9212H78.8292H84.3006H84.5033L84.6271 22.7523L89.3104 16.6279H99.3527H100.152L99.7017 15.975L97.101 12.1472L96.9772 11.9558H96.752H92.8568L96.0991 7.7115L107.154 22.7523L107.29 22.9212H107.492H113.324H114.146L113.662 22.2456L97.9229 0.686477Z" fill="#292929"/>
<path d="M135.379 5.08863C137.968 5.08863 140.219 6.68727 141.221 8.17333L141.345 8.36477H147.526L147.323 7.80187C145.612 2.96089 141.244 0.123811 135.333 0.0112305C135.232 0.0112305 135.12 0.0112305 135.018 0.0112305C128.049 0.0112305 122.792 5.40386 122.792 12.5527C122.792 18.7897 128.432 23.8559 135.379 23.8559C140.996 23.8559 145.466 21.0976 147.323 16.4931L147.357 16.4142V11.9786H134.602L135.03 12.6316L137.641 16.5719L137.765 16.7632H140.58C139.375 18.0129 137.427 18.7898 135.379 18.7898C132.147 18.7898 128.545 16.0878 128.545 12.2037C128.545 8.67997 130.887 5.11117 135.379 5.11117V5.08863Z" fill="#292929"/>
<path d="M170.47 0C163.557 0 157.939 5.32504 157.939 11.866C157.939 18.4069 163.557 23.8333 170.47 23.8333C177.382 23.8333 183 18.4632 183 11.866C183 5.26875 177.382 0 170.47 0ZM170.47 18.7559C166.631 18.7559 163.737 15.795 163.737 11.866C163.737 7.93691 166.698 5.07733 170.47 5.07733C174.241 5.07733 177.202 8.11704 177.202 11.866C177.202 15.6149 174.241 18.7559 170.47 18.7559Z" fill="#292929"/>
</svg>
