<svg width="283" height="70" viewBox="0 0 283 70" fill="none" xmlns="http://www.w3.org/2000/svg">
<path fill-rule="evenodd" clip-rule="evenodd" d="M43.1371 0.427672C44.0329 1.67076 58.8339 22.2923 59.001 22.5301C59.158 22.7533 59.1485 22.7533 58.9159 22.5301C58.7719 22.3919 55.0355 17.4189 50.6129 11.4789C46.1902 5.53885 42.4598 0.565812 42.323 0.427672C42.0295 0.131299 42.291 0.557942 47.0908 8.20755C50.3534 13.4071 51.1412 14.7909 50.3777 13.9805C50.2527 13.8478 48.1853 10.7254 45.7835 7.04165C43.3818 3.35791 41.3402 0.268602 41.2467 0.176509C41.1531 0.0844152 41.3014 0.423486 41.5764 0.929999C41.8512 1.43651 42.9195 3.43326 43.9501 5.36722C44.9809 7.30118 46.0929 9.37328 46.4214 9.97189C46.9545 10.9437 46.9775 11.0333 46.6362 10.8079C46.4245 10.6681 44.9857 8.29378 43.4113 5.48611C41.8479 2.69786 40.5433 0.442239 40.5121 0.473551C40.4809 0.504863 41.2841 2.40986 42.2968 4.707C44.8352 10.4648 44.6348 9.94627 44.2878 9.85502C44.0948 9.80428 43.2473 8.17055 41.7789 5.0176C40.5592 2.39897 39.5411 0.276807 39.5165 0.301588C39.4918 0.32637 40.1411 2.30001 40.9591 4.68741C41.7772 7.07463 42.4465 9.08964 42.4465 9.16499C42.4465 9.2405 42.3475 9.30212 42.2263 9.30212C42.0905 9.30212 41.3734 7.57864 40.3514 4.79591C39.4413 2.31759 38.673 0.313309 38.644 0.341941C38.615 0.370574 39.1636 2.6344 39.8633 5.37275C40.7514 8.84885 41.0826 10.4046 40.9604 10.5273C40.8642 10.6239 40.7612 10.6705 40.7314 10.6304C40.7017 10.5906 40.0503 8.29747 39.2838 5.53467C37.9942 0.886465 37.4814 -0.750788 37.7102 0.511393C37.7602 0.787673 38.1947 3.50024 38.6755 6.53932C39.437 11.3523 39.5373 12.4629 39.178 12.1019C39.103 12.0266 36.9514 0.533496 36.9482 0.190406C36.9474 0.106015 36.9144 0.0693454 36.8751 0.109029C36.8356 0.148713 36.9089 1.72468 37.0379 3.61142C37.3354 7.95923 37.3359 8.13002 37.0485 8.13002C36.7544 8.13002 36.7012 7.79397 36.3326 3.60908C36.0476 0.374928 36.0241 0.249179 35.9269 1.43233C35.8701 2.12303 35.8139 3.91265 35.8019 5.40908C35.7811 8.01114 35.7656 8.13002 35.4468 8.13002C35.1235 8.13002 35.113 8.01248 35.0956 4.23699L35.0778 0.343951L34.6045 4.11141C34.344 6.18351 34.127 7.93546 34.1222 8.00444C34.1042 8.26448 33.6135 8.1178 33.6135 7.85241C33.6135 7.6997 33.7688 5.9593 33.9585 3.98499C34.1483 2.01067 34.2773 0.369067 34.2453 0.336918C34.2135 0.304769 33.8218 1.98857 33.3754 4.07875C32.6329 7.55452 32.3084 8.54897 32.0136 8.25293C31.9543 8.19332 32.2242 6.48038 32.6136 4.44629C33.0029 2.4122 33.2887 0.715338 33.2489 0.675152C33.2089 0.635134 32.3989 3.10608 31.4486 6.16609C30.4985 9.22627 29.6865 11.7962 29.6443 11.8771C29.6022 11.9581 29.505 11.912 29.4287 11.7749C29.3395 11.6147 29.8573 9.53202 30.8755 5.95578C31.7474 2.89242 32.4391 0.363877 32.4121 0.336918C32.3852 0.30996 31.5908 2.18414 30.6468 4.50188C28.3996 10.0191 28.3497 10.1264 28.2022 9.77046C28.1267 9.58828 28.6929 7.89946 29.768 5.09865C30.6943 2.68597 31.4291 0.688882 31.4011 0.660752C31.3731 0.632621 30.3541 2.5644 29.1367 4.95347C27.0408 9.06636 26.712 9.62395 26.5041 9.41531C26.4381 9.34884 29.3869 2.90515 30.6553 0.343951C31.1958 -0.747606 30.1548 0.928158 27.6044 5.2547C26.0123 7.95572 24.57 10.2408 24.3992 10.3326C24.0169 10.5382 23.8176 10.926 26.821 5.61839C28.0977 3.3621 29.3334 1.17698 29.5668 0.762557C29.8003 0.348137 29.9143 0.0844152 29.8202 0.176509C29.7262 0.268602 27.4568 3.54629 24.777 7.46025C19.2902 15.4744 19.8082 14.7437 19.6942 14.6291C19.6467 14.5814 21.6937 11.3853 24.2431 7.5269C28.9905 0.341608 29.2872 -0.117018 28.997 0.176509C28.906 0.268602 26.4251 3.43326 23.4841 7.20909C20.5429 10.9849 17.8205 14.3756 17.4343 14.744C16.876 15.2763 23.0373 6.89045 27.3374 1.26488C27.7951 0.666278 27.9717 0.364881 27.7301 0.595115C27.4884 0.825348 21.1502 7.98351 13.6453 16.5021L0 31.9906L4.51549 32.0743C6.99906 32.1203 8.93748 32.219 8.82282 32.2935C8.6705 32.3924 8.6145 33.1466 8.6145 35.0981V37.7673H4.36466C1.6896 37.7673 0.114829 37.8283 0.114829 37.9321C0.114829 38.1121 26.5756 69.5814 26.727 69.5814C26.7781 69.5814 26.6366 69.3366 26.4125 69.0372C26.1883 68.7378 22.6799 63.859 18.6161 58.1953C14.5524 52.5316 11.0379 47.6339 10.8062 47.3116C10.5746 46.9892 10.5023 46.8385 10.6456 46.9767C10.7891 47.1148 14.6373 52.2385 19.1974 58.3628C23.7576 64.487 27.5976 69.6107 27.7311 69.7488C27.9621 69.9881 27.0909 68.5788 21.573 59.786C20.2437 57.6679 19.2264 55.9082 19.3122 55.8756C19.5037 55.8027 18.8144 54.791 24.0301 62.8C28.2999 69.3567 29.0844 70.5184 28.6087 69.5814C28.2011 68.7782 23.7397 60.4503 23.3476 59.7606C23.0031 59.1546 22.9899 59.0751 23.2454 59.1422C23.4236 59.1891 24.7135 61.3141 26.532 64.5563C28.1784 67.4917 29.5433 69.8754 29.5652 69.8535C29.587 69.8316 28.6439 67.6327 27.4694 64.9672C26.2951 62.3017 25.3488 60.1003 25.3668 60.075C25.5837 59.7708 26.2661 60.9826 28.1309 64.9824C29.3502 67.5975 30.3687 69.7159 30.3943 69.6901C30.42 69.6643 29.768 67.689 28.9452 65.3006C28.1224 62.9122 27.4488 60.9017 27.4483 60.8325C27.4476 60.7634 27.5488 60.7069 27.6729 60.7069C27.8162 60.7069 28.4961 62.3296 29.5325 65.1457C30.431 67.587 31.1896 69.5608 31.2184 69.5318C31.2473 69.5029 30.709 67.2755 30.0223 64.5819C29.1864 61.3032 28.8222 59.5973 28.9207 59.4208C29.0014 59.2756 29.104 59.2231 29.1485 59.3041C29.1932 59.385 29.859 61.7099 30.6283 64.4705C31.3978 67.2313 32.0457 69.3788 32.0686 69.2427C32.0914 69.1067 31.7133 66.5088 31.2283 63.4697C30.461 58.6625 30.358 57.5478 30.7138 57.9051C30.7896 57.9813 32.9469 69.4851 32.9469 69.8133C32.9469 69.9007 32.978 69.9407 33.0162 69.9024C33.0544 69.864 32.982 68.3256 32.8555 66.4837C32.5586 62.1598 32.5579 61.879 32.8451 61.879C33.1427 61.879 33.1989 62.24 33.5624 66.4837L33.8635 70L33.969 68.3256C34.0268 67.4046 34.0832 65.5773 34.094 64.2651C34.1125 61.9973 34.13 61.879 34.4468 61.879C34.7698 61.879 34.7806 61.9966 34.798 65.6884L34.8158 69.4977L35.2891 65.7302C35.5496 63.6581 35.7666 61.9438 35.7714 61.9209C35.7761 61.898 35.8926 61.879 36.0301 61.879C36.3392 61.879 36.3464 61.577 35.9351 65.8566C35.7453 67.8309 35.6194 69.4757 35.6553 69.5119C35.6913 69.5479 36.0843 67.8832 36.5286 65.8123C37.1047 63.1268 37.424 61.9674 37.6415 61.7697C38.0573 61.3916 38.0637 61.333 37.197 65.8854C36.7862 68.0429 36.4689 69.8269 36.4916 69.8498C36.5144 69.8727 37.3117 67.3917 38.2633 64.3364C40.3744 57.5589 40.2629 57.8716 40.4476 58.2032C40.5439 58.376 40.0688 60.291 39.0181 63.9649C38.1527 66.9912 37.4674 69.4906 37.4955 69.5188C37.5235 69.5469 38.3978 67.4817 39.4383 64.9292C40.4788 62.3767 41.3912 60.2192 41.4662 60.1348C41.5455 60.0452 41.6415 60.0841 41.6965 60.2279C41.7484 60.3635 40.9996 62.5349 40.0328 65.0532C39.0658 67.5714 38.2975 69.6547 38.3253 69.6827C38.3532 69.7107 39.3836 67.704 40.6152 65.2237C42.5818 61.2634 43.1362 60.3394 43.3913 60.5956C43.4263 60.6309 42.478 62.7173 41.2841 65.2321C40.0899 67.7469 39.1318 69.8227 39.1548 69.8451C39.1778 69.8674 40.5466 67.599 42.1965 64.8041C43.9691 61.8015 45.3177 59.6901 45.4927 59.643C45.7695 59.569 45.7682 59.5986 45.4702 60.0934C44.5633 61.5996 39.9459 69.8036 39.9848 69.8398C40.0096 69.863 42.2707 66.612 45.0094 62.6155C47.7483 58.6188 50.052 55.3488 50.1292 55.3488C50.2804 55.3488 48.9757 57.3871 43.9669 64.9767C42.2045 67.6474 40.9257 69.6442 41.1256 69.4139C41.3252 69.1837 43.873 65.9437 46.787 62.2139C49.7011 58.4841 52.368 55.1688 52.7131 54.8465L53.3409 54.2604L52.7684 55.0477C52.4536 55.4807 49.8057 59.0221 46.884 62.9175C43.9623 66.8129 41.7244 69.8493 41.9109 69.6651C42.7748 68.812 69.7788 38.0473 69.7788 37.9162C69.7788 37.8331 67.8793 37.7673 65.4873 37.7675H61.1958V34.9628V32.158L65.5423 32.0743L69.8889 31.9906L56.5128 16.1036C49.1559 7.36582 43.0417 0.132304 42.9257 0.029159C42.8098 -0.0739855 42.905 0.105346 43.1371 0.427672ZM47.6151 12.6218C47.6126 13.0729 48.9733 15.5 49.0681 15.2138C49.1031 15.1085 48.7909 14.3945 48.3744 13.6273C47.8645 12.6876 47.6166 12.3595 47.6151 12.6218ZM21.619 14.7609C21.3292 15.2768 21.1345 15.7415 21.1863 15.7935C21.3007 15.9082 21.2687 15.9487 21.9125 14.8761C22.2006 14.3961 22.371 13.9629 22.291 13.9133C22.2111 13.8636 21.9086 14.245 21.619 14.7609ZM32.1969 15.617C30.169 15.8987 27.3256 16.907 25.4408 18.0128C14.5224 24.4195 12.5063 39.7271 21.3938 48.7417C23.0173 50.3881 24.586 51.5331 26.5305 52.4907C28.5404 53.4805 30.0073 53.9475 32.1136 54.2684C39.1198 55.3357 45.9619 52.4455 50.3659 46.5581C51.4632 45.0913 52.8761 42.1212 53.3531 40.279C54.6699 35.1941 54.2141 30.6199 51.9333 26.0293C49.2074 20.5425 43.937 16.6535 37.8914 15.6676C36.9021 15.5064 33.2295 15.4737 32.1969 15.617ZM12.404 21.114C11.4177 22.4453 10.6444 23.5347 10.6856 23.5347C10.7594 23.5347 14.0924 19.2971 14.3404 18.8882C14.4101 18.7732 14.4066 18.6821 14.3324 18.6861C14.2583 18.6901 13.3905 19.7827 12.404 21.114ZM54.4482 20.1022C54.4475 20.1943 54.7467 20.7217 55.1127 21.2743C55.977 22.5788 55.9781 22.3561 55.1143 20.9879C54.7485 20.4087 54.4487 20.0101 54.4482 20.1022ZM15.2976 21.0725C15.0867 21.4253 15.0904 21.4288 15.3774 21.1527C15.5426 20.9936 15.6419 20.8275 15.5981 20.7835C15.5542 20.7394 15.4191 20.8695 15.2976 21.0725ZM88.5327 23.1325C87.8424 24.1911 85.0272 29.8806 84.0247 32.2434C82.395 36.0844 79.9484 40.5278 79.0599 41.26C78.8178 41.4596 78.7611 41.429 78.5968 41.0089C78.3291 40.3242 78.6374 39.282 79.5381 37.8283C80.2437 36.6895 80.2779 36.5756 80.269 35.4004C80.2495 32.8495 79.6214 32.2972 78.3269 33.693C77.9143 34.138 77.4368 34.777 77.2662 35.113C76.4219 36.7744 75.8702 40.2919 76.2654 41.4946C76.6832 42.7665 77.8325 43.6278 79.1117 43.6278C81.1845 43.6278 83.0471 41.2612 85.1282 35.9832C85.9391 33.9267 88.4566 28.344 88.5349 28.4286C88.5582 28.4537 88.5134 28.8887 88.4352 29.3952C88.2249 30.759 87.7837 35.6766 87.7586 36.9398C87.7329 38.2136 87.9684 38.7768 88.993 39.8937C89.7453 40.7136 90.7058 41.2836 91.3353 41.2836C91.9422 41.2836 92.7987 40.2132 93.4159 38.6831C93.9927 37.2536 98.3465 28.5841 98.2065 29.144C97.477 32.0619 96.8979 35.3423 96.6984 37.6871C96.6031 38.8083 96.6231 38.9002 97.1322 39.6727C97.7255 40.5723 99.0806 41.7299 99.7338 41.8946C100.624 42.1192 101.298 41.5473 102.931 39.1795L103.5 38.3534L103.632 38.8413C103.796 39.4511 104.829 40.5393 105.646 40.963C106.048 41.1713 106.602 41.2831 107.229 41.2819C109.23 41.2786 111.055 39.8697 112.276 37.3849C113.908 34.0652 113.48 31.6004 111.064 30.4054C109.642 29.7023 107.933 29.4284 106.857 29.7313C105.324 30.1624 104.235 31.7314 105.095 32.2709C105.395 32.4587 105.369 32.5239 104.654 33.4024C103.792 34.4624 103.444 35.1864 103.444 35.9201C103.444 36.1994 103.358 36.4278 103.253 36.4278C103.023 36.4278 101.792 37.4197 100.831 38.379C100.448 38.7616 100.092 39.0315 100.039 38.9791C99.7143 38.6526 100.127 35.1448 100.783 32.6603C101.464 30.0819 102.111 26.9946 102.111 26.3238C102.111 25.3339 100.556 23.3673 99.7739 23.3673C98.9883 23.3673 98.3682 24.2904 94.1567 31.73C92.5637 34.5441 91.1808 36.9217 91.0835 37.0138C90.7776 37.3033 91.0496 32.5661 91.5153 29.491C92.0521 25.9471 92.0606 25.0062 91.5643 24.1258C90.7968 22.7642 89.1292 22.218 88.5327 23.1325ZM59.1125 22.9283C59.1125 22.9629 59.2439 23.0949 59.4042 23.2213C59.6685 23.4294 59.6743 23.4235 59.4672 23.158C59.2494 22.879 59.1125 22.7904 59.1125 22.9283ZM34.3372 23.4091C34.1533 23.6164 33.4145 24.8031 32.6956 26.0464C29.6952 31.2342 23.6486 40.5003 23.1343 40.6987C22.7103 40.8622 23.0589 39.8841 24.0224 38.2075L24.9472 36.5981V34.8332C24.9472 32.8604 24.9034 32.7883 23.8272 32.991C23.0414 33.1392 22.3613 33.8569 21.5662 35.3774C20.7402 36.9567 20.3972 38.4991 20.4849 40.241C20.5375 41.2848 20.6364 41.7362 20.8864 42.0724C21.44 42.8176 22.0473 43.1682 22.9321 43.2536C23.6199 43.3201 23.9484 43.2497 24.7184 42.8713C26.5193 41.986 27.2608 41.012 30.1375 35.7525C31.5714 33.1309 32.9042 30.6658 33.0992 30.2743C33.294 29.8828 33.483 29.5627 33.5189 29.5627C33.5547 29.5627 33.4727 30.0337 33.3369 30.6092C31.7328 37.4028 31.6603 38.1123 32.4482 39.3075C32.7239 39.7257 33.2729 40.4168 33.6682 40.8433C34.3193 41.5457 34.458 41.6185 35.1443 41.6185C36.0853 41.6185 36.5877 41.248 37.2514 40.0651C40.8376 33.6722 42.8252 30.222 42.8863 30.2837C42.9277 30.325 42.8005 31.8186 42.604 33.6027C42.1549 37.6784 42.213 38.891 42.9273 40.3488C44.0221 42.5833 46.5614 44.0146 47.5925 42.9786C48.0121 42.557 48.8343 40.0462 48.6961 39.6085C48.5383 39.109 47.8718 38.7211 47.4128 38.8612C47.2022 38.9257 46.7778 39.168 46.47 39.3999C46.016 39.7416 45.8827 39.7776 45.7642 39.5898C45.4637 39.1131 45.7072 35.0357 46.2894 30.7977C46.722 27.6473 46.6607 27.3477 45.2507 25.7178C44.1196 24.4104 43.6193 24.233 42.992 24.9161C42.8017 25.1234 41.3001 27.6287 39.6548 30.4836C36.6812 35.6437 35.6134 37.4254 35.6134 37.2267C35.6134 37.1696 36.0634 34.8448 36.6134 32.0604C37.1634 29.2762 37.6117 26.652 37.6097 26.2292C37.5995 24.0794 35.4138 22.196 34.3372 23.4091ZM182.108 36.5952C182.108 45.3022 182.165 49.8232 182.274 49.8232C182.384 49.8232 182.441 45.3022 182.441 36.5952C182.441 27.8882 182.384 23.3673 182.274 23.3673C182.165 23.3673 182.108 27.8882 182.108 36.5952ZM59.6125 23.598C59.6125 23.6327 59.7438 23.7646 59.9042 23.891C60.1685 24.0992 60.1743 24.0933 59.9672 23.8277C59.7493 23.5488 59.6125 23.4602 59.6125 23.598ZM10.2598 23.9952C10.0526 24.2608 10.0584 24.2666 10.3228 24.0585C10.6004 23.8396 10.6886 23.7022 10.5514 23.7022C10.5169 23.7022 10.3856 23.8339 10.2598 23.9952ZM9.75979 24.665C9.55263 24.9305 9.55846 24.9364 9.82278 24.7283C9.98328 24.6018 10.1144 24.4699 10.1144 24.4352C10.1144 24.2974 9.97761 24.386 9.75979 24.665ZM175.669 25.3384C175.157 25.755 174.941 26.2624 174.941 27.0477C174.941 27.9738 175.504 28.558 176.397 28.558C177.227 28.558 177.721 28.1936 177.934 27.4229C178.206 26.4383 178.143 26.0556 177.621 25.5311C177.053 24.9612 176.232 24.8801 175.669 25.3384ZM128.664 26.7032C127.484 27.264 127.168 27.6674 126.776 29.1137C126.503 30.1161 126.476 30.1504 125.903 30.1996C125.133 30.2659 124.738 30.71 124.807 31.4306C124.854 31.9333 124.921 31.9991 125.461 32.0743L126.061 32.158L125.337 35.5069C124.506 39.3505 124.509 39.8763 125.364 40.7354C125.82 41.1932 126.034 41.2836 126.664 41.2836C127.297 41.2836 127.627 41.1426 128.72 40.4045C129.437 39.9211 130.192 39.2695 130.4 38.9565C130.607 38.6436 130.776 38.497 130.776 38.6307C130.776 39.0684 131.757 40.4397 132.314 40.781C132.964 41.179 134.094 41.2197 134.768 40.8694C135.029 40.7336 135.55 40.2627 135.925 39.8229L136.607 39.0232L136.609 39.809C136.61 40.7895 136.996 41.1162 138.153 41.1162C139.888 41.1162 142.131 39.2487 141.598 38.2484C141.442 37.9559 141.305 37.9115 140.801 37.9899C140.467 38.0421 140.024 38.1352 139.818 38.1968C139.479 38.298 139.443 38.2521 139.443 37.7216C139.443 36.8502 139.89 34.64 140.449 32.7496C141.047 30.7292 141.074 30.1475 140.587 29.8853C140.083 29.6142 139.178 29.8054 138.497 30.3267L137.916 30.7721L137.471 30.3436C136.958 29.8502 135.964 29.3952 135.398 29.3952C134.121 29.3952 131.956 31.3086 131.041 33.2464C130.558 34.2688 130.527 34.4531 130.527 36.288C130.526 37.8199 130.482 38.2042 130.32 38.0694C130.063 37.8547 129.216 37.9681 128.418 38.3241C127.957 38.5294 127.79 38.5456 127.733 38.3907C127.691 38.278 127.962 36.8484 128.335 35.2138L129.012 32.2417H129.535C130.19 32.2417 130.61 31.794 130.61 31.0948C130.61 30.6711 130.515 30.5191 130.151 30.3624C129.899 30.2537 129.677 30.1571 129.656 30.1477C129.636 30.1385 129.769 29.3875 129.95 28.4791C130.28 26.8323 130.264 26.2136 129.89 26.214C129.782 26.214 129.23 26.4342 128.664 26.7032ZM156.979 29.7278C155.987 30.1802 154.579 31.65 153.917 32.9264C153.364 33.9892 153.359 34.0223 153.359 36.2603C153.359 38.4316 153.378 38.5548 153.833 39.3801C154.42 40.4439 155.107 40.9708 156.047 41.0773C157.023 41.1878 157.643 40.8948 158.53 39.9039L159.275 39.0707V39.752C159.275 40.7396 159.735 41.1162 160.941 41.1162C161.682 41.1162 162.031 41.0177 162.617 40.6432C164.54 39.4158 165.092 37.7508 163.5 37.9776C163.147 38.028 162.727 38.1223 162.567 38.1873C162.307 38.2926 162.275 38.1886 162.278 37.2411C162.28 36.1458 162.609 34.6027 163.39 32.0169C163.877 30.4047 163.833 30.104 163.073 29.8316C162.542 29.6415 161.993 29.7808 161.235 30.2979C160.648 30.6976 160.629 30.6996 160.35 30.39C159.942 29.9372 158.754 29.3945 158.181 29.3989C157.912 29.4009 157.371 29.5489 156.979 29.7278ZM120.104 29.9394C119.798 30.1467 119.139 30.8007 118.638 31.3931L117.728 32.4701L117.868 31.8117C117.945 31.4496 118.012 30.852 118.018 30.4836L118.027 29.8138L117.11 29.8465C115.52 29.9032 113.444 30.8344 113.444 31.4909C113.444 31.5984 113.741 31.7757 114.103 31.8849C114.466 31.9941 114.807 32.1555 114.861 32.2434C114.916 32.3313 114.652 33.4783 114.276 34.7924C113.686 36.8529 113.115 39.7259 113.111 40.6445C113.111 40.7994 113.261 40.9742 113.445 41.033C113.832 41.1564 115.455 40.9812 115.777 40.7815C115.896 40.7071 116.058 40.18 116.135 39.6102C116.378 37.8311 116.767 36.8126 117.807 35.2368C118.925 33.5438 119.989 32.4092 120.459 32.4092C120.83 32.4092 120.833 32.3894 119.92 36.1436C119.152 39.3024 119.117 39.966 119.686 40.5377C120.271 41.1261 121.546 41.1128 122.595 40.5075C124.025 39.6822 124.443 39.2926 124.443 38.784C124.443 38.0431 124.088 37.8506 123.188 38.1039C122.773 38.2204 122.395 38.2774 122.349 38.2301C122.302 38.1831 122.49 37.2496 122.767 36.1559C123.315 33.9922 123.633 31.7876 123.483 31.1939C123.112 29.7221 121.375 29.0774 120.104 29.9394ZM148.63 30.0688C148.248 30.3473 147.62 30.9837 147.235 31.4832C146.851 31.9827 146.517 32.3722 146.493 32.3487C146.47 32.3251 146.535 31.8486 146.639 31.2897C146.904 29.8589 146.795 29.6603 145.814 29.7827C144.096 29.997 142.262 30.8175 142.145 31.4238C142.112 31.5993 142.315 31.7483 142.778 31.8878C143.153 32.0006 143.496 32.186 143.539 32.2995C143.582 32.4132 143.317 33.555 142.949 34.8369C142.58 36.1187 142.163 37.9559 142.02 38.9193C141.696 41.112 141.754 41.2099 143.264 41.034C144.432 40.8977 144.776 40.6405 144.776 39.9017C144.776 38.6941 145.481 36.7265 146.405 35.3535C147.486 33.7485 148.73 32.4092 149.14 32.4092C149.498 32.4092 149.486 32.4894 148.59 36.1272C147.819 39.2562 147.785 39.8917 148.351 40.5057C148.69 40.8729 148.905 40.9487 149.608 40.9487C150.515 40.9487 151.217 40.6574 152.401 39.7909C152.95 39.3888 153.109 39.1641 153.109 38.7914C153.109 38.0433 152.756 37.8499 151.853 38.1039C151.439 38.2204 151.059 38.275 151.009 38.2251C150.959 38.1752 151.146 37.2794 151.424 36.2346C151.701 35.1897 152.009 33.673 152.107 32.8644C152.263 31.5817 152.25 31.3173 152.003 30.7935C151.395 29.5071 149.856 29.1764 148.63 30.0688ZM170.711 30.4417C170.334 30.8332 169.86 31.3794 169.659 31.6557L169.293 32.158L169.284 31.2287C169.269 29.7087 168.946 29.6095 166.667 30.426C164.853 31.0758 164.647 31.2393 164.909 31.8169C165.062 32.1547 165.222 32.2417 165.688 32.2417C166.186 32.2417 166.275 32.299 166.275 32.6185C166.275 32.8258 165.896 34.5022 165.434 36.3441C164.972 38.1859 164.615 39.9566 164.643 40.279C164.692 40.8627 164.695 40.8652 165.588 40.9164C166.335 40.9591 166.551 40.9037 166.895 40.5815C167.482 40.0307 167.74 39.4573 167.869 38.4214C167.93 37.9236 168.121 37.1871 168.294 36.7851C168.652 35.9469 169.87 34.1883 170.497 33.6032C170.874 33.2511 170.982 33.2278 171.459 33.3949C172.114 33.6243 172.619 33.3579 172.922 32.624C173.096 32.2015 173.191 32.1511 173.697 32.2106C174.015 32.2479 174.275 32.2915 174.275 32.3074C174.275 32.3233 173.938 33.8031 173.526 35.5959C172.664 39.3513 172.584 40.4603 173.145 40.8555C173.763 41.2905 174.98 41.1855 176.154 40.5956C177.554 39.8928 177.941 39.5106 177.941 38.8298C177.941 38.1315 177.438 37.9591 176.523 38.3433C176.175 38.4895 175.856 38.5747 175.814 38.5329C175.709 38.4274 176.274 35.8109 177.03 32.8959C177.378 31.552 177.616 30.3277 177.558 30.175C177.487 29.99 177.258 29.8975 176.869 29.8975C176.123 29.8975 173.841 30.6229 173.44 30.9876C173.149 31.252 173.118 31.2396 172.871 30.7599C172.589 30.212 172.009 29.7301 171.632 29.7301C171.503 29.7301 171.089 30.0502 170.711 30.4417ZM185.821 32.4432C185.257 33.8519 184.744 35.1363 184.683 35.2976C184.588 35.5477 184.674 35.5906 185.27 35.5906C185.929 35.5906 185.982 35.5537 186.23 34.9208L186.491 34.251L187.508 34.2527L188.524 34.2544L188.803 34.9225C189.064 35.5464 189.128 35.5906 189.762 35.5906C190.135 35.5906 190.441 35.569 190.441 35.5427C190.441 35.5162 189.933 34.2542 189.313 32.738L188.184 29.9813L187.516 29.9315L186.848 29.882L185.821 32.4432ZM194.431 30.0563C193.204 30.4303 192.774 31.1348 192.774 32.7693C192.775 34.851 193.571 35.5899 195.816 35.5902L197.107 35.5906V35.1107C197.107 34.635 197.097 34.6301 195.908 34.5447C194.394 34.4359 194.107 34.1524 194.107 32.7628C194.107 31.301 194.348 31.0696 195.867 31.0696H197.107V30.4836V29.8975L195.982 29.9119C195.363 29.9198 194.665 29.9848 194.431 30.0563ZM198.941 30.0754C197.876 30.528 197.295 31.8531 197.514 33.3237C197.736 34.8123 198.638 35.5599 200.237 35.5812C201.75 35.6011 202.643 34.8088 202.855 33.2594C202.993 32.2493 202.528 30.8049 201.919 30.354C201.402 29.972 199.584 29.8018 198.941 30.0754ZM203.607 32.7354V35.5906H204.19H204.773L204.787 33.6231L204.801 31.6557L205.418 33.5813L206.034 35.5069H206.681H207.329L207.951 33.665L208.574 31.8231L208.632 33.665L208.69 35.5069L209.232 35.5593L209.773 35.6118V32.7546V29.8975H208.954H208.134L207.427 32.0287C206.889 33.6531 206.689 34.0811 206.589 33.8288C206.517 33.6466 206.21 32.7064 205.906 31.7394L205.354 29.9813L204.481 29.9307L203.607 29.88V32.7354ZM210.852 30.0995C210.804 30.2264 210.785 31.4949 210.81 32.9185L210.857 35.5069L211.482 35.5588L212.107 35.6108V34.596V33.5813H213.447C214.643 33.5813 214.832 33.5374 215.191 33.1771C215.95 32.4145 215.942 31.1103 215.174 30.3848C214.783 30.0156 214.585 29.9764 212.844 29.925C211.342 29.8806 210.922 29.9175 210.852 30.0995ZM216.618 32.5348C216.042 33.9851 215.533 35.2662 215.487 35.3813C215.429 35.5286 215.61 35.5906 216.101 35.5906C216.756 35.5906 216.815 35.5504 217.077 34.9225L217.356 34.2544L218.373 34.2527L219.389 34.251L219.651 34.9208C219.898 35.5537 219.951 35.5906 220.611 35.5906C221.101 35.5906 221.284 35.5285 221.227 35.3813C221.182 35.2662 220.669 33.9851 220.087 32.5348L219.029 29.8975H218.347H217.665L216.618 32.5348ZM221.773 32.7349V35.5906H222.351H222.929L222.976 33.6357L223.023 31.6808L224.077 33.6357L225.13 35.5906H225.868H226.606V32.7441V29.8975H226.028H225.45L225.403 31.865L225.356 33.8324L224.356 31.9068L223.356 29.9813L222.564 29.9302L221.773 29.8791V32.7349ZM227.106 29.9622C227.106 30.0082 227.556 30.745 228.106 31.5994C229.095 33.1359 229.106 33.1663 229.106 34.3718V35.5906H229.689H230.273V34.3614C230.273 33.1369 230.276 33.1268 231.24 31.7242C231.773 30.9497 232.265 30.222 232.333 30.1068C232.426 29.9523 232.271 29.8977 231.741 29.8979C231.036 29.8984 231.01 29.919 230.364 30.9824L229.705 32.0664L229.106 31.0238C228.535 30.0312 228.473 29.9787 227.806 29.9299C227.421 29.9014 227.106 29.916 227.106 29.9622ZM236.158 30.0722C234.785 30.4968 234.19 32.8015 235.031 34.4346C235.554 35.4509 237.553 35.9126 238.766 35.2972C239.632 34.8584 240.025 34.0535 240.01 32.7441C239.997 31.5328 239.672 30.7287 239.025 30.3024C238.532 29.9777 236.889 29.8458 236.158 30.0722ZM242.022 30.1291C240.966 30.6045 240.861 30.8813 240.801 33.3472L240.746 35.5906H241.343H241.939V34.4185V33.2464H243.605H245.272V32.7441V32.2417H243.605C242.128 32.2417 241.939 32.2084 241.941 31.9487C241.947 31.29 242.219 31.1557 243.724 31.0696L245.189 30.9859V30.4836V29.9813L243.855 29.9426C243.019 29.9185 242.336 29.9878 242.022 30.1291ZM199.283 31.2277C199.105 31.4069 198.909 31.8213 198.848 32.1486C198.699 32.9478 198.887 33.8626 199.283 34.2604C199.635 34.6136 200.438 34.6886 200.946 34.4156C201.647 34.0387 201.739 31.8719 201.082 31.2116C200.669 30.7974 199.703 30.8059 199.283 31.2277ZM236.457 31.2193C235.792 31.8874 235.888 34.0327 236.6 34.4156C237.003 34.6323 237.704 34.6341 238.103 34.4198C238.837 34.025 238.941 31.9094 238.26 31.225C237.839 30.8019 236.875 30.7989 236.457 31.2193ZM212.107 31.8312V32.5925L213.131 32.5428C214.275 32.487 214.562 32.2503 214.378 31.5142C214.272 31.0902 214.217 31.0696 213.187 31.0696H212.107V31.8312ZM217.983 32.3223L217.645 33.2464H218.373H219.101L218.757 32.3673C218.567 31.8839 218.392 31.468 218.367 31.4432C218.342 31.4186 218.17 31.8141 217.983 32.3223ZM187.279 31.9673C187.185 32.2104 187.034 32.5975 186.945 32.8278C186.787 33.236 186.801 33.2464 187.522 33.2464H188.262L187.924 32.4544C187.495 31.4472 187.484 31.439 187.279 31.9673ZM135.469 32.3576C134.742 32.7176 133.353 34.4526 133.03 35.4037C132.891 35.8156 132.776 36.5535 132.776 37.0436V37.9348H133.349C134.199 37.9348 134.692 37.6917 135.639 36.8069C136.963 35.5683 137.997 32.9967 137.441 32.3239C137.169 31.9946 136.168 32.0118 135.469 32.3576ZM158.345 32.2364C158.155 32.3139 157.575 32.8482 157.056 33.4239C155.953 34.6489 155.401 35.9265 155.476 37.0835L155.525 37.8511L156.315 37.8407C158.035 37.8181 159.844 35.6936 160.329 33.1273C160.399 32.7566 160.351 32.5096 160.175 32.332C159.9 32.0555 158.916 32.0043 158.345 32.2364ZM107.957 32.836C107.176 33.5448 106.109 35.565 106.114 36.3246C106.121 37.2268 106.696 38.2527 107.35 38.5272C107.671 38.6618 108.072 38.772 108.241 38.772C108.938 38.772 109.842 37.3139 110.343 35.3789C110.639 34.2373 110.486 33.5056 109.82 32.8788C109.049 32.154 108.717 32.1463 107.957 32.836ZM191.61 37.8092C191.048 38.7899 190.083 40.7421 188.734 43.6278C187.844 45.532 186.482 47.8139 186.235 47.8139C186.165 47.8139 186.108 47.5841 186.108 47.3032C186.108 46.7739 186.464 45.932 186.898 45.4339C187.082 45.2227 187.129 44.8783 187.076 44.1337C186.992 42.9751 186.803 42.6737 186.322 42.9326C185.429 43.4123 184.613 45.4074 184.61 47.119C184.608 47.9159 184.67 48.0778 185.174 48.5841C186.608 50.025 188.356 48.7018 189.811 45.0745C190.111 44.3249 190.712 42.9957 191.146 42.1208C191.75 40.9015 191.915 40.6669 191.855 41.1162C191.812 41.4385 191.696 42.6334 191.598 43.7713L191.42 45.8406L191.854 46.4988C192.305 47.1836 193.156 47.8122 193.634 47.8132C194.009 47.814 194.647 47.0215 194.994 46.1235C195.328 45.2612 197.591 40.8049 197.601 40.9924C197.604 41.0624 197.464 41.7782 197.289 42.5831C197.114 43.3879 196.918 44.5955 196.855 45.2667L196.739 46.4869L197.578 47.3301C198.69 48.4473 199.073 48.4153 200.099 47.1195L200.848 46.1741L201.143 46.6607C201.8 47.7472 203.084 48.0888 204.254 47.4889C206.122 46.5314 207.309 43.4992 206.339 42.1649C205.563 41.0996 203.36 40.613 202.31 41.2754C201.674 41.6761 201.483 42.0554 201.726 42.4366C201.858 42.6446 201.787 42.8479 201.418 43.318C201.154 43.6543 200.892 44.1628 200.835 44.4483C200.778 44.7338 200.674 44.9674 200.604 44.9674C200.534 44.9674 200.081 45.3247 199.597 45.7614L198.718 46.5554L198.829 45.3637C198.889 44.7083 199.164 43.2772 199.439 42.1836C200.242 38.9908 200.246 38.818 199.525 37.9766C199.189 37.5853 198.778 37.265 198.611 37.265C198.26 37.265 197.269 38.7557 195.024 42.6644L193.524 45.2751L193.473 44.3421C193.445 43.8289 193.581 42.3583 193.774 41.074C193.968 39.7897 194.08 38.5262 194.023 38.2663C193.867 37.554 193.212 36.9301 192.619 36.9301C192.185 36.9301 192.043 37.0539 191.61 37.8092ZM255.206 37.448C252.247 38.4706 249.77 41.403 249.774 43.879C249.777 46.1359 251.437 47.9761 253.474 47.9803C254.438 47.9823 255.801 47.3357 257.558 46.043C257.915 45.7801 257.911 45.8161 257.433 47.1322C256.824 48.8068 256.821 49.0168 257.397 49.6638C258.233 50.6038 258.516 50.1668 259.679 46.1492C259.997 45.0499 260.279 43.8107 260.306 43.3954C260.337 42.9187 260.413 42.6988 260.513 42.7991C260.6 42.8865 260.806 42.958 260.971 42.958C261.367 42.958 261.356 43.0779 260.771 45.1348C260.151 47.3141 260.142 47.6074 260.689 47.7454C261.497 47.9492 262.018 47.3857 262.421 45.8705C262.521 45.4925 262.91 44.8332 263.285 44.4054C263.844 43.7676 264.068 43.6278 264.531 43.6278C265.32 43.6278 265.736 43.0108 265.436 42.2851C265.104 41.478 264.538 41.4519 263.767 42.2082C263.319 42.6478 263.148 42.7437 263.205 42.5227C263.25 42.3477 263.176 42.0539 263.041 41.8697C262.795 41.5365 262.788 41.537 261.556 41.9598C260.676 42.2618 260.242 42.3372 260.057 42.2198C259.857 42.093 259.629 42.2097 259.074 42.7243C258.071 43.6526 256.455 44.7311 255.135 45.3528C254.296 45.7476 253.782 45.8782 253.049 45.8826C252.177 45.8876 252.033 45.8377 251.656 45.3975C251.322 45.0069 251.253 44.7815 251.318 44.2911C251.578 42.3455 254.226 39.4972 256.628 38.5803C257.421 38.2775 257.504 38.2743 257.894 38.531C258.26 38.772 258.301 38.8952 258.229 39.5345C258.178 39.9913 257.981 40.4625 257.701 40.7965C256.737 41.9474 257.631 42.5503 258.915 41.6158C260.606 40.385 260.469 38.0858 258.66 37.326C257.882 36.9994 256.348 37.0535 255.206 37.448ZM243.605 38.6045C242.822 39.3915 243.551 40.707 244.571 40.3466C245.178 40.132 245.446 39.0756 245.015 38.5963C244.636 38.1759 244.028 38.1794 243.605 38.6045ZM215.69 39.3205C215.157 39.6208 214.973 39.8553 214.773 40.4889C214.578 41.1068 214.445 41.2821 214.168 41.2828C213.41 41.2846 213.173 42.3214 213.907 42.4264C214.172 42.4643 214.263 42.5664 214.209 42.7613C214.165 42.9155 214.002 43.6446 213.847 44.3813C213.571 45.6907 213.289 46.4892 213.278 45.9953C213.275 45.8258 213.123 45.7955 212.69 45.8772C212.369 45.9377 212.107 45.9509 212.107 45.9065C212.107 45.8622 212.256 45.1994 212.439 44.4337C213.049 41.8784 212.798 40.9487 211.501 40.9487C211.009 40.9487 210.76 41.0852 210.167 41.6808L209.439 42.4129L209.481 41.7227L209.523 41.0325L208.857 41.086C207.974 41.1569 206.773 41.6994 206.773 42.0277C206.773 42.1779 206.917 42.2883 207.112 42.2883C207.637 42.2883 207.654 42.6218 207.207 44.1698C206.98 44.9588 206.742 46.0639 206.679 46.6254L206.564 47.6464H207.24C208.027 47.6464 208.437 47.3156 208.447 46.6717C208.459 45.9755 208.842 45.0516 209.546 44.022C210.167 43.1139 210.858 42.4847 211.036 42.6642C211.084 42.7119 210.931 43.5081 210.698 44.4336C210.193 46.4328 210.17 46.9986 210.578 47.3693C211.04 47.7894 211.654 47.7045 212.554 47.0962L213.368 46.5458L213.612 47.0539C213.986 47.8305 214.628 47.9746 215.542 47.4872C215.953 47.268 216.466 46.8784 216.681 46.6215L217.072 46.1545L217.279 46.656C217.734 47.7605 219.097 48.016 219.952 47.157C220.336 46.7715 220.44 46.7289 220.44 46.9561C220.44 47.7657 221.793 47.9103 222.8 47.2087C223.853 46.4758 223.86 45.6922 222.813 45.8628L222.228 45.9581L222.335 45.0469C222.394 44.5457 222.623 43.5613 222.845 42.8593C223.067 42.1572 223.21 41.4807 223.162 41.3558C223.011 40.96 222.452 40.9081 221.892 41.2377C221.36 41.5512 221.353 41.5507 220.79 41.1672C219.872 40.5417 219.204 40.7212 218.073 41.8978C217.26 42.743 216.94 43.5625 216.94 44.7946C216.94 45.7672 216.924 45.8046 216.512 45.8046C216.277 45.8046 215.933 45.8859 215.748 45.9856C215.563 46.0852 215.37 46.1256 215.32 46.0753C215.24 45.9944 215.441 45.044 215.952 43.0948C216.066 42.6602 216.218 42.4624 216.468 42.4251C216.663 42.3959 216.905 42.2354 217.006 42.0684C217.155 41.8226 217.118 41.7056 216.811 41.4527C216.468 41.1694 216.448 41.0733 216.599 40.4166C216.957 38.8572 216.815 38.6864 215.69 39.3205ZM232.689 41.0197C232.014 41.3241 231.013 42.4003 230.697 43.162C230.555 43.5044 230.439 44.2579 230.438 44.8364L230.437 45.8883L229.772 45.9134C229.405 45.9273 229.107 45.9273 229.109 45.9134C229.11 45.8997 229.259 45.3232 229.439 44.6325C229.619 43.9418 229.768 42.9477 229.77 42.4234C229.773 41.32 229.443 40.9487 228.457 40.9487C227.995 40.9487 227.744 41.0937 227.179 41.6863L226.475 42.4239L226.56 41.7918C226.606 41.4425 226.567 41.1118 226.472 41.0529C226.171 40.8655 224.604 41.3014 224.141 41.7014L223.694 42.0877L224.211 42.3136L224.727 42.5394L224.264 44.1472C224.01 45.0317 223.776 46.1619 223.745 46.6589L223.689 47.5627L224.336 47.616C224.692 47.6453 225.065 47.5875 225.164 47.4877C225.264 47.3877 225.44 46.839 225.556 46.2684C225.689 45.612 225.98 44.9183 226.349 44.3803C227.032 43.3835 227.89 42.5182 228.043 42.6714C228.102 42.7307 227.953 43.5706 227.711 44.5379C227.47 45.5052 227.273 46.483 227.273 46.7109C227.273 47.1716 227.822 47.6473 228.351 47.6449C228.878 47.6424 230.438 46.6744 230.446 46.3454C230.45 46.1552 230.542 46.2282 230.715 46.5581C231.33 47.7377 232.587 48.0257 233.429 47.1801L233.893 46.7138L234.068 47.1801C234.223 47.5927 234.328 47.6464 234.975 47.6464C236.002 47.6464 237.097 46.8384 237.103 46.0755C237.105 45.8027 237.013 45.7729 236.417 45.8533L235.729 45.9461L235.824 45.1636C235.876 44.7334 236.104 43.7464 236.329 42.9704C236.555 42.1943 236.702 41.4626 236.657 41.3442C236.51 40.9591 235.946 40.9117 235.391 41.2377C234.859 41.5512 234.852 41.5507 234.289 41.1672C233.643 40.7269 233.391 40.7036 232.689 41.0197ZM240.58 41.6463L239.939 42.344V41.73C239.939 40.9811 239.692 40.9442 238.24 41.4762C237.537 41.734 237.272 41.9124 237.308 42.1041C237.336 42.2514 237.527 42.3961 237.732 42.4256C238.216 42.4949 238.211 42.8169 237.698 44.7162C237.149 46.7441 237.094 47.5314 237.494 47.6134C238.4 47.7996 238.957 47.2166 239.184 45.8444C239.259 45.3935 239.576 44.7572 240.045 44.1166C240.724 43.1896 240.83 43.1116 241.269 43.2085C241.664 43.2958 241.8 43.2382 242.03 42.8852C242.324 42.435 243.046 42.2677 242.886 42.6871C242.837 42.8144 242.591 43.8644 242.339 45.0208C241.959 46.7637 241.917 47.1677 242.097 47.3847C242.679 48.0902 245.105 47.2682 245.105 46.3652C245.105 45.9725 245.055 45.9414 244.522 46.0038C243.782 46.0906 243.779 45.9842 244.439 43.5441C244.713 42.5311 244.937 41.5703 244.938 41.4092C244.939 41.009 244.186 41.0231 243.084 41.4439L242.225 41.7715L241.903 41.3601C241.726 41.1339 241.5 40.9487 241.401 40.9487C241.302 40.9487 240.932 41.2627 240.58 41.6463ZM266.361 41.9782C266.003 42.2612 265.925 42.435 265.997 42.7941C266.061 43.1178 265.969 43.4125 265.679 43.8066C265.089 44.6109 265.091 46.2341 265.684 46.9422C266.88 48.3693 268.72 47.8691 269.833 45.8146C270.093 45.3334 270.335 44.5749 270.386 44.0789C270.467 43.2882 270.429 43.1404 270.007 42.6366C269.418 41.9343 268.682 41.6185 267.632 41.6185C267.05 41.6185 266.686 41.7215 266.361 41.9782ZM278.568 42.0075C277.472 43.0284 276.105 50.326 276.838 51.2464C277.103 51.5802 277.105 51.5802 277.414 51.2156C277.697 50.8806 277.902 50.0847 278.191 48.1925C278.291 47.5388 278.326 47.4972 278.643 47.6672C278.832 47.7688 279.312 47.815 279.711 47.7698C281.734 47.5408 283.458 44.4307 282.482 42.771C281.833 41.6667 279.436 41.1992 278.568 42.0075ZM271.685 42.0884C270.459 42.6083 270.307 42.8529 271.038 43.132C271.356 43.2536 271.442 43.375 271.36 43.5883C271.298 43.7482 271.098 44.4274 270.915 45.0976C270.539 46.4713 270.662 47.2658 271.321 47.7297C271.918 48.1496 272.425 48.0331 273.143 47.3116C273.51 46.9432 273.839 46.6418 273.874 46.6418C273.909 46.6418 273.937 46.7975 273.937 46.9877C273.937 48.1863 275.07 48.3217 276.229 47.2615C276.435 47.0728 276.604 46.7722 276.604 46.5936C276.604 46.328 276.513 46.2823 276.104 46.3426C275.484 46.4342 275.479 46.3534 275.962 44.0392C276.159 43.0962 276.274 42.2034 276.217 42.0554C276.076 41.6863 275.341 41.7158 274.952 42.1059C274.777 42.2817 274.544 42.8658 274.433 43.4036C274.182 44.6264 273.955 45.0682 273.201 45.7959C272.276 46.6893 272.188 46.3402 272.79 44.1668C273.075 43.137 273.265 42.1799 273.212 42.0401C273.087 41.7131 272.529 41.7307 271.685 42.0884ZM219.31 43.0794C218.635 43.7991 218.273 44.5722 218.273 45.2969C218.273 45.6971 218.345 45.8046 218.615 45.8046C219.723 45.8046 221.106 44.1665 221.106 42.8539C221.106 42.5078 221.027 42.4557 220.501 42.4557C220.018 42.4557 219.777 42.582 219.31 43.0794ZM232.81 43.0794C232.134 43.7991 231.772 44.5722 231.772 45.2969C231.772 45.6971 231.845 45.8046 232.114 45.8046C233.23 45.8046 234.606 44.1896 234.606 42.8797C234.606 42.5038 234.537 42.4557 234 42.4557C233.518 42.4557 233.277 42.582 232.81 43.0794ZM203.097 43.4185C202.431 44.4714 202.343 44.8933 202.655 45.5497C202.984 46.2436 203.688 46.4673 204.133 46.0199C204.54 45.6115 205.131 43.8924 204.996 43.5114C204.81 42.985 204.402 42.6232 203.994 42.6232C203.705 42.6232 203.465 42.836 203.097 43.4185ZM279.969 43.2224C279.447 43.59 278.909 44.7299 278.969 45.3399C279.001 45.6612 279.185 45.9782 279.458 46.1818C280.08 46.646 280.496 46.364 280.94 45.1773C281.338 44.1151 281.268 43.5793 280.68 43.1888C280.389 42.9962 280.283 43.0012 279.969 43.2224ZM267.475 43.5046C266.993 44.0198 266.584 45.0492 266.715 45.4184C266.902 45.9466 267.31 46.3069 267.721 46.3069C268.039 46.3069 268.202 46.1291 268.527 45.4278C269.003 44.4009 269.034 44.0076 268.678 43.4977C268.347 43.022 267.924 43.0245 267.475 43.5046ZM86.5698 43.8877C86.501 43.9597 86.4448 45.2932 86.4448 46.8511V49.6837L88.4317 49.628C90.2808 49.5759 90.4501 49.5429 90.8698 49.1534C91.4901 48.5778 91.7786 47.8186 91.7743 46.7727C91.7694 45.6041 91.2936 44.5683 90.5951 44.2055C90.0122 43.9026 86.7978 43.6489 86.5698 43.8877ZM92.5557 43.9069C92.4946 43.9682 92.4446 45.2868 92.4446 46.8372V49.6557H93.1112H93.7778V48.5578V47.4597L94.4833 47.5113C95.1605 47.5607 95.2121 47.6049 95.7631 48.6092C96.3279 49.6387 96.3487 49.6557 97.0465 49.6557H97.756L97.1002 48.5282C96.7396 47.908 96.4444 47.3479 96.4444 47.2836C96.4444 47.2193 96.5831 47.1225 96.7524 47.0684C97.3819 46.8677 97.654 45.4794 97.2297 44.6325C97.0854 44.3443 96.7876 44.1529 96.2739 44.018C95.4668 43.8061 92.737 43.7246 92.5557 43.9069ZM98.4443 46.7155V49.6557H99.115H99.7854L99.7399 46.7674L99.6943 43.879L99.0693 43.8271L98.4443 43.775V46.7155ZM100.082 43.8798C100.027 43.9351 100.527 45.2384 101.193 46.7762L102.404 49.572L103.053 49.6218L103.703 49.6713L104.824 46.9048C105.44 45.3831 105.944 44.0565 105.944 43.9567C105.944 43.8502 105.696 43.7966 105.345 43.8271L104.747 43.879L103.905 45.934C103.442 47.0642 103.035 47.9607 103 47.9264C102.966 47.8919 102.579 46.9671 102.14 45.8714C101.347 43.8956 101.336 43.8786 100.762 43.8291C100.443 43.8018 100.137 43.8246 100.082 43.8798ZM107.944 43.9475C107.014 44.1399 106.604 44.4433 106.267 45.1902C105.658 46.5376 105.916 48.2847 106.852 49.1534C107.259 49.5307 107.467 49.5777 108.957 49.6296L110.611 49.6871V49.1692V48.6511H109.379C108.052 48.6511 107.577 48.4239 107.364 47.6883C107.256 47.3152 107.271 47.3116 108.943 47.3116H110.632L110.579 46.7674L110.527 46.2232L108.91 46.1753C107.465 46.1326 107.303 46.0969 107.393 45.8404C107.654 45.1025 107.951 44.9674 109.314 44.9674H110.632L110.579 44.4232L110.527 43.879L109.527 43.8529C108.977 43.8385 108.265 43.8812 107.944 43.9475ZM120.416 43.9498C119.016 44.2318 118.444 45.0725 118.444 46.8482C118.444 48.9486 119.251 49.6551 121.652 49.6554L123.11 49.6557V49.1534V48.6511H121.853C120.74 48.6511 120.548 48.6039 120.186 48.24C119.421 47.4718 119.602 47.3288 121.402 47.2757L123.027 47.2278V46.7255V46.2232L121.402 46.1753C120.508 46.1488 119.777 46.0959 119.777 46.0576C119.777 46.0192 119.865 45.794 119.972 45.5573C120.195 45.0645 120.441 44.9858 121.943 44.9265C123.027 44.8836 123.027 44.8835 123.027 44.3813C123.027 43.8818 123.021 43.8788 122.027 43.8529C121.477 43.8385 120.752 43.8822 120.416 43.9498ZM125.623 43.9773C124.591 44.1805 124.001 44.8021 123.768 45.9303C123.457 47.4378 123.861 48.7363 124.826 49.3276C125.248 49.5859 125.666 49.6546 126.818 49.6551L128.276 49.6557V49.1712V48.6866L126.928 48.625C125.259 48.549 125.11 48.3972 125.11 46.7772C125.11 45.1941 125.35 44.9674 127.027 44.9674H128.276V44.3813V43.7953L127.318 43.8137C126.791 43.8237 126.028 43.8974 125.623 43.9773ZM129.229 43.8989C129.163 43.9647 129.11 45.2868 129.11 46.8372V49.6557H129.776H130.443V48.4836V47.3116H131.443H132.443V48.4836V49.6557H133.114H133.784L133.739 46.7674L133.693 43.879H133.11H132.526L132.477 45.0092L132.428 46.1395H131.443H130.458L130.409 45.0092C130.36 43.8855 130.357 43.8786 129.854 43.8293C129.575 43.8018 129.294 43.8333 129.229 43.8989ZM134.895 43.8991C134.83 43.9647 134.776 45.2868 134.776 46.8372V49.6557H135.443H136.11L136.112 47.6046L136.115 45.5534L137.237 47.6031L138.359 49.6526L139.068 49.6542L139.776 49.6557V46.7255V43.7953H139.193H138.609V45.8438V47.8922L137.483 45.8856L136.358 43.879L135.686 43.8293C135.316 43.802 134.961 43.8333 134.895 43.8991ZM142.026 44.0317C141.751 44.1544 141.338 44.4588 141.109 44.7082C140.748 45.102 140.686 45.3416 140.643 46.5296C140.587 48.0711 140.842 48.7872 141.663 49.3927C142.345 49.8948 144.382 49.8915 145.055 49.387C145.845 48.7954 146.157 48.0794 146.165 46.8358C146.174 45.3464 145.787 44.53 144.872 44.1126C144.079 43.7505 142.74 43.7125 142.026 44.0317ZM146.895 43.8989C146.829 43.9647 146.776 44.9126 146.776 46.0053C146.776 49.1283 147.172 49.6557 149.517 49.6557H150.776V49.1534V48.6511L149.734 48.6486C149.161 48.6471 148.58 48.5747 148.442 48.4877C148.248 48.3646 148.174 47.8336 148.109 46.1041L148.026 43.879L147.52 43.8293C147.241 43.8018 146.96 43.8333 146.895 43.8989ZM151.948 44.0886C151.051 44.5431 150.692 45.3208 150.692 46.8092C150.692 48.9264 151.489 49.7482 153.526 49.7309C155.521 49.7142 156.392 48.6528 156.234 46.4305C156.103 44.6018 155.249 43.7958 153.442 43.7958C152.901 43.7958 152.289 43.9157 151.948 44.0886ZM158.627 43.9731C157.316 44.2375 156.73 45.1087 156.72 46.8064C156.713 48.0952 157.043 48.8487 157.825 49.3276C158.267 49.5983 158.667 49.6546 160.156 49.6551L161.954 49.6557L161.906 47.9395L161.859 46.2232L160.484 46.1746L159.109 46.1259V46.7188C159.109 47.3097 159.111 47.3116 159.859 47.3116C160.605 47.3116 160.609 47.3147 160.609 47.8976V48.4836H159.618C158.783 48.4836 158.587 48.425 158.368 48.1114C157.887 47.4216 158.083 45.4925 158.675 45.0955C158.776 45.0278 159.557 44.9714 160.411 44.9699L161.963 44.9674L161.911 44.4232L161.859 43.879L160.609 43.8524C159.921 43.8376 159.029 43.892 158.627 43.9731ZM162.109 43.8827C162.109 43.9309 162.596 44.7026 163.192 45.5978L164.275 47.2253V48.4404V49.6557H164.858H165.442V48.382V47.1083L166.525 45.5472C167.121 44.6887 167.608 43.9433 167.608 43.8907C167.608 43.8383 167.31 43.7953 166.945 43.7953C166.314 43.7953 166.247 43.8478 165.543 44.9022L164.804 46.0093L164.108 44.9022C163.444 43.8458 163.382 43.7953 162.76 43.7953C162.402 43.7953 162.109 43.8346 162.109 43.8827ZM113.277 44.465C113.277 44.9623 113.286 44.9674 114.194 44.9674H115.11V47.3116V49.6557H115.777H116.444V47.3116V44.9674H117.36C118.268 44.9674 118.277 44.9623 118.277 44.465V43.9627H115.777H113.277V44.465ZM60.2578 44.9255C60.0507 45.1911 60.0565 45.1969 60.3208 44.9888C60.5985 44.7699 60.6866 44.6325 60.5495 44.6325C60.515 44.6325 60.3836 44.7644 60.2578 44.9255ZM142.647 44.9119C141.923 45.2046 141.68 47.4339 142.288 48.2099C142.564 48.5618 142.774 48.6506 143.33 48.6486C143.713 48.6471 144.108 48.5906 144.209 48.523C144.585 48.2707 144.776 47.6389 144.776 46.6451C144.776 45.782 144.712 45.5576 144.367 45.211C143.974 44.8167 143.211 44.684 142.647 44.9119ZM152.659 45.0516C152.159 45.4035 151.885 46.3461 152.021 47.2524C152.171 48.2609 152.584 48.6511 153.5 48.6511C154.571 48.6511 154.859 48.2548 154.859 46.7771C154.859 45.7039 154.82 45.575 154.391 45.204C153.858 44.7435 153.181 44.6839 152.659 45.0516ZM87.7781 46.8092V48.6511H88.6762C89.8993 48.6511 90.295 48.315 90.4031 47.1845C90.5683 45.4578 90.2062 44.9674 88.7662 44.9674H87.7781V46.8092ZM93.7778 45.6371V46.3069H94.8553C95.7499 46.3069 95.9619 46.252 96.1053 45.9831C96.3284 45.5641 96.3257 45.5419 96.0159 45.2304C95.8366 45.0504 95.4419 44.9674 94.766 44.9674H93.7778V45.6371ZM59.7578 45.5953C59.5507 45.8608 59.5565 45.8667 59.8208 45.6586C59.9812 45.5321 60.1125 45.4002 60.1125 45.3655C60.1125 45.2277 59.9757 45.3163 59.7578 45.5953ZM57.6869 48.2743C56.6981 49.5407 55.7773 50.709 55.6408 50.8707C55.5042 51.0325 55.4297 51.2021 55.475 51.2476C55.5203 51.2932 56.4706 50.1249 57.5868 48.6513C58.7027 47.1776 59.5863 45.972 59.5503 45.972C59.5142 45.972 58.6757 47.0081 57.6869 48.2743ZM9.94778 46.2027C9.94778 46.2374 10.0789 46.3694 10.2394 46.4958C10.5038 46.7039 10.5096 46.698 10.3024 46.4325C10.0846 46.1535 9.94778 46.0649 9.94778 46.2027ZM14.3136 48.1906C14.4443 48.3979 14.7239 48.8539 14.9351 49.2042C15.1462 49.5543 15.3532 49.8063 15.3954 49.7641C15.4767 49.6822 14.2883 47.8139 14.1548 47.8139C14.1114 47.8139 14.1829 47.9833 14.3136 48.1906ZM54.659 48.5255C54.4092 48.85 54.252 49.1534 54.3337 49.1534C54.3744 49.1534 54.5305 48.965 54.6807 48.7348C54.9617 48.304 54.946 48.1528 54.659 48.5255ZM47.9406 55.1075C47.6491 55.6195 47.4561 56.0842 47.5118 56.1401C47.6381 56.2672 47.6171 56.295 48.2646 55.1395C48.5613 54.6099 48.7291 54.1767 48.6374 54.1767C48.5458 54.1767 48.2321 54.5956 47.9406 55.1075ZM20.7807 54.7664C20.7807 55.0794 22.1801 57.5644 22.2468 57.3695C22.3333 57.1163 21.1197 54.6829 20.9057 54.6804C20.837 54.6797 20.7807 54.7184 20.7807 54.7664Z" fill="#858585"/>
</svg>
