<svg width="199" height="70" viewBox="0 0 199 70" fill="none" xmlns="http://www.w3.org/2000/svg">
<path fill-rule="evenodd" clip-rule="evenodd" d="M52.5127 0.475759C49.3642 1.2745 45.7357 2.94814 43.518 4.62394C43.1222 4.92324 41.5798 6.38058 40.0906 7.86272C37.0835 10.8557 34.8844 14.2472 33.1887 18.5075C32.1162 21.2016 32.0612 21.5857 32.0335 26.5466C32.0176 29.4121 32.1389 32.8477 32.3033 34.1818L32.6016 36.6072H25.0175H17.4332V45.7694V54.9317H107.92H198.408V52.0573V49.1828H137.499H76.591L78.459 47.1783C83.396 41.8807 86.5046 34.4298 86.5104 27.8789C86.5154 22.273 84.9737 17.3538 81.6327 12.3167C77.5383 6.1438 71.3269 1.77429 64.638 0.360782C62.1245 -0.170272 54.7841 -0.100926 52.5127 0.475759ZM51.7931 11.2305C48.4665 11.8945 45.0287 13.6806 42.5659 16.0243C40.0071 18.4594 38.5385 21.1351 37.721 24.851C37.1932 27.2487 37.191 27.7312 37.6969 30.1734C38.0027 31.6505 38.6014 33.7884 39.0271 34.9249L39.801 36.9909L47.6109 36.9528C56.2963 36.9108 58.5799 36.5339 62.0997 34.5613C65.6666 32.5621 67.8038 28.3776 67.8038 23.3926C67.8038 20.3493 67.1281 18.3095 65.4378 16.2493C62.1598 12.2549 56.7086 10.2496 51.7931 11.2305ZM97.4559 29.213C95.4296 30.0944 94.7568 31.3728 94.8284 34.2073C94.8834 36.3765 95.0226 36.8583 95.8703 37.8054C96.8101 38.856 96.9817 38.9035 100.226 39.0159C107.297 39.261 109.577 39.5208 109.802 40.1068C110.212 41.1718 108.858 41.6374 105.357 41.6374C101.768 41.6374 100.185 41.2551 100.185 40.3888C100.185 39.9465 99.6647 39.8409 97.4865 39.8409H94.7881V41.2961C94.7881 43.1638 95.5451 44.6092 96.8299 45.1942C98.1078 45.7763 106.261 46.1384 110.067 45.782C112.65 45.5406 113.038 45.4011 114.11 44.3308C115.243 43.1997 115.296 43.0243 115.296 40.4215C115.296 37.9186 115.21 37.6006 114.247 36.5231L113.197 35.3496L106.961 35.1239C103.531 35 100.684 34.8789 100.635 34.8545C100.585 34.8304 100.545 34.4265 100.545 33.9573C100.545 32.9361 101.559 32.6523 105.177 32.6598C108.169 32.6659 109.099 32.9121 109.372 33.7715C109.559 34.3593 109.956 34.4513 112.309 34.4513H115.03L114.846 32.8197C114.637 30.9736 113.846 29.9047 112.159 29.1918C110.55 28.5116 99.0311 28.5282 97.4559 29.213ZM131.562 29.2317C130.911 29.4598 129.939 30.084 129.403 30.619C128.445 31.5747 128.426 31.6807 128.311 36.8561C128.178 42.8339 128.329 43.365 130.585 44.8324C132.01 45.759 132.103 45.7694 138.862 45.7694C145.409 45.7694 145.756 45.7339 147.056 44.9261C148.746 43.8773 149.476 42.5105 149.476 40.3978V38.763H146.643C143.812 38.763 143.809 38.7641 143.603 39.7924C143.36 41.005 142.452 41.2781 138.661 41.2781C136.146 41.2781 134.407 40.8408 133.928 40.0877C133.779 39.8531 133.654 38.57 133.651 37.2359C133.644 34.4046 134.323 33.3906 136.254 33.3472C142.188 33.2132 143.824 33.4862 143.618 34.5756C143.566 34.8534 144.475 35.0251 146.374 35.0959L149.208 35.2019L149.043 33.2153C148.858 30.9876 148.165 29.9632 146.314 29.181C144.835 28.5558 133.379 28.5954 131.562 29.2317ZM155.307 29.4121C154.087 29.9704 153.608 30.4688 153.023 31.7889C152.379 33.243 152.299 34.023 152.412 37.8176C152.617 44.7084 153.436 45.4982 160.732 45.8424C166.873 46.1316 171.097 45.7375 172.587 44.7361C174.532 43.4286 174.841 42.3877 174.84 37.1461C174.84 32.9171 174.763 32.3512 174.024 31.164C172.706 29.0456 171.498 28.7621 163.661 28.7323C157.621 28.7089 156.677 28.7858 155.307 29.4121ZM119.254 37.5054V45.9491H121.772H124.291V37.5054V29.0617H121.772H119.254V37.5054ZM178.619 37.4871V45.9793L181.408 45.8744L184.196 45.7694L184.304 43.7034L184.412 41.6374H188.28C190.808 41.6374 192.297 41.7869 192.579 42.0686C192.817 42.3057 193.011 43.2759 193.011 44.2244V45.9491H195.709H198.408V43.2805C198.408 40.8994 198.316 40.5394 197.553 39.9404L196.699 39.2696L197.553 38.2776C198.274 37.4407 198.408 36.8978 198.408 34.8074C198.408 29.5403 197.913 29.2946 186.984 29.1246L178.619 28.9945V37.4871ZM160.389 33.4704C158.326 33.9023 158.111 34.2462 158.111 37.1213C158.111 40.8157 158.338 41.028 162.476 41.2084C166.544 41.3856 168.73 40.8991 169.039 39.7482C169.383 38.463 169.298 35.1854 168.901 34.4431C168.7 34.0694 168.012 33.6655 167.371 33.5459C165.552 33.2056 161.846 33.1654 160.389 33.4704ZM184.376 35.3496V36.9891L188.603 36.8881L192.831 36.7868V35.3496V33.9124L188.603 33.811L184.376 33.7101V35.3496ZM0.882812 45.7508V54.9317H2.86778H4.85274L4.75667 45.8593L4.66061 36.7868L2.77171 36.6783L0.882812 36.5694V45.7508ZM5.91988 45.7694V54.9317H7.89872H9.87757V45.7694V36.6072H7.89872H5.91988V45.7694ZM11.3167 45.7694V54.9317H13.2956H15.2744V45.7694V36.6072H13.2956H11.3167V45.7694ZM1.2426 65.5312V69.6632H4.3368C7.37595 69.6632 7.45258 69.6417 8.65428 68.4416C9.67285 67.4244 9.87757 66.9566 9.87757 65.6473C9.87757 62.6442 8.14266 61.3992 3.95902 61.3992H1.2426V65.5312ZM14.1951 65.5312C14.1951 68.8951 14.2918 69.6632 14.7149 69.6632C15.0783 69.6632 15.2679 69.1595 15.3446 67.9928L15.4543 66.3221L16.869 66.2861C18.1491 66.2534 18.406 66.4104 19.5674 67.9361C20.4198 69.0557 21.1286 69.6291 21.6772 69.6428C22.4695 69.6625 22.4504 69.5943 21.2095 67.9713C19.9898 66.376 19.9567 66.2639 20.6324 66.0141C21.8359 65.5697 22.5469 64.1626 22.1266 63.0581C21.6413 61.784 20.464 61.3992 17.05 61.3992H14.1951V65.5312ZM27.0277 61.6389C26.8956 61.7704 26.7877 63.6298 26.7877 65.7709C26.7877 69.4236 26.832 69.6632 27.5073 69.6632C28.1851 69.6632 28.2269 69.4236 28.2269 65.5312C28.2269 62.3273 28.1189 61.3992 27.7473 61.3992C27.4832 61.3992 27.1594 61.507 27.0277 61.6389ZM31.8849 61.6752C31.9507 61.8272 32.8951 63.6858 33.9835 65.8057C36.596 70.8939 36.7917 70.8935 39.3818 65.8007C40.4623 63.6765 41.4031 61.8167 41.4725 61.6687C41.5423 61.5207 41.2635 61.3992 40.853 61.3992C40.2709 61.3992 39.7294 62.1502 38.3884 64.818L36.6697 68.2368L34.9693 64.818C33.6327 62.1315 33.1078 61.3992 32.5166 61.3992C32.1032 61.3992 31.8187 61.5235 31.8849 61.6752ZM45.137 65.505C45.137 69.4459 45.1752 69.6632 45.8685 69.6632C46.5665 69.6632 46.5952 69.4786 46.4981 65.6254C46.4096 62.1128 46.3142 61.5717 45.7666 61.4671C45.1964 61.3579 45.137 61.738 45.137 65.505ZM51.2534 65.5312C51.2534 68.9648 51.3448 69.6632 51.7931 69.6632C52.235 69.6632 52.3328 69.0445 52.3328 66.2506V62.8375L55.4195 66.2506C57.2799 68.3076 58.7803 69.6632 59.1973 69.6632C59.8388 69.6632 59.8884 69.3672 59.8884 65.5312C59.8884 61.6389 59.8467 61.3992 59.1688 61.3992C58.5047 61.3992 58.4485 61.6418 58.4403 64.5431L58.4313 67.6871L55.5281 64.5431C53.8303 62.7046 52.3404 61.3992 51.9392 61.3992C51.3045 61.3992 51.2534 61.7068 51.2534 65.5312ZM65.7533 62.1027C63.4554 63.5019 63.4226 67.3418 65.694 69.0355C66.9838 69.997 69.6974 70.2787 70.789 69.5644C71.5463 69.069 71.6647 69.0707 71.9874 69.5817C72.6282 70.596 73.2007 69.692 73.2007 67.6659V65.7109H70.862C69.0231 65.7109 68.5234 65.8262 68.5234 66.2498C68.5234 66.649 68.9433 66.7888 70.1424 66.7888C71.9274 66.7888 72.1249 67.0676 71.0372 68.0507C70.5555 68.4862 69.7535 68.705 68.6417 68.705C67.2508 68.705 66.8226 68.5336 66.089 67.682C65.3648 66.8409 65.2428 66.3997 65.404 65.2007C65.6584 63.3053 66.6787 62.4771 68.7594 62.4771C69.9575 62.4771 70.567 62.6888 71.206 63.3269C72.1188 64.2384 73.0172 64.0724 72.6297 63.0639C71.9943 61.4107 67.8427 60.8304 65.7533 62.1027ZM82.915 61.9195C82.915 62.2935 83.445 62.4699 84.8039 62.5483L86.6928 62.6568L86.7957 66.16C86.8777 68.9489 87.0062 69.6632 87.4253 69.6632C87.8527 69.6632 87.952 68.9849 87.952 66.0702V62.4771H89.9309C91.4499 62.4771 91.9097 62.3521 91.9097 61.9382C91.9097 61.488 91.17 61.3992 87.4124 61.3992C83.7267 61.3992 82.915 61.493 82.915 61.9195ZM95.8674 65.505C95.8674 69.4236 95.9088 69.6632 96.587 69.6632C97.2105 69.6632 97.3066 69.4236 97.3066 67.8667V66.0702H100.185H103.063V67.8667C103.063 69.4236 103.159 69.6632 103.783 69.6632C104.461 69.6632 104.502 69.4236 104.502 65.505C104.502 61.7388 104.443 61.3579 103.873 61.466C103.398 61.5559 103.216 62.0054 103.133 63.2888L103.024 64.9923H100.185H97.3462L97.2364 63.2888C97.1537 62.0054 96.9716 61.5559 96.4971 61.466C95.9268 61.3579 95.8674 61.7388 95.8674 65.505ZM109.18 65.5312V69.6632H113.167C116.197 69.6632 117.119 69.5555 117.006 69.2141C116.906 68.9119 115.836 68.7308 113.738 68.6611L110.619 68.5573V67.3137V66.0702H113.137C115.136 66.0702 115.656 65.9588 115.656 65.5312C115.656 65.1037 115.136 64.9923 113.137 64.9923H110.619V63.7347V62.4771H113.677C116.156 62.4771 116.735 62.3751 116.735 61.9382C116.735 61.4934 116.076 61.3992 112.957 61.3992H109.18V65.5312ZM127.889 65.5312C127.889 68.9648 127.98 69.6632 128.428 69.6632C128.836 69.6632 128.968 69.2242 128.968 67.8667V66.0702H131.667C133.825 66.0702 134.365 65.9624 134.365 65.5312C134.365 65.1001 133.825 64.9923 131.667 64.9923H128.968V63.7347V62.4771H132.206C134.845 62.4771 135.444 62.3772 135.444 61.9382C135.444 61.4934 134.785 61.3992 131.667 61.3992H127.889V65.5312ZM139.402 64.4504C139.402 68.0252 139.711 68.8103 141.398 69.5141C143.786 70.5105 146.63 69.9011 147.508 68.2048C147.845 67.5548 148.037 66.1331 148.037 64.2916C148.037 61.6389 147.977 61.3992 147.317 61.3992C146.655 61.3992 146.598 61.6389 146.598 64.3847C146.598 66.2495 146.424 67.6069 146.136 68.0015C145.536 68.8207 143.083 69.111 141.921 68.5005C141.087 68.0629 141.008 67.7913 140.841 64.8072C140.69 62.1099 140.559 61.5667 140.032 61.4664C139.471 61.3597 139.402 61.6881 139.402 64.4504ZM151.995 61.9382C151.995 62.3521 152.455 62.4771 153.974 62.4771H155.952V66.0702C155.952 68.9849 156.052 69.6632 156.479 69.6632C156.898 69.6632 157.027 68.9489 157.109 66.16L157.212 62.6568L159.101 62.5483C160.46 62.4699 160.989 62.2935 160.989 61.9195C160.989 61.493 160.178 61.3992 156.492 61.3992C152.734 61.3992 151.995 61.488 151.995 61.9382ZM164.947 64.2916C164.947 66.1331 165.139 67.5548 165.476 68.2048C166.354 69.9011 169.198 70.5105 171.586 69.5141C173.273 68.8103 173.582 68.0252 173.582 64.4504C173.582 61.6881 173.513 61.3597 172.952 61.4664C172.425 61.5667 172.294 62.1099 172.143 64.8072C171.976 67.7913 171.897 68.0629 171.064 68.5005C169.901 69.111 167.448 68.8207 166.849 68.0015C166.56 67.6069 166.386 66.2495 166.386 64.3847C166.386 61.6389 166.329 61.3992 165.667 61.3992C165.007 61.3992 164.947 61.6389 164.947 64.2916ZM178.259 65.5312C178.259 69.4236 178.301 69.6632 178.979 69.6632C179.599 69.6632 179.699 69.4236 179.699 67.9371V66.2107L181.179 66.2477C182.507 66.2811 182.787 66.4575 183.911 67.9741C184.641 68.9572 185.451 69.6632 185.85 69.6632C186.785 69.6632 186.73 69.4832 185.232 67.6576C184.274 66.4899 184.083 66.0702 184.513 66.0702C185.382 66.0702 186.535 64.7541 186.535 63.7609C186.535 63.2464 186.146 62.5831 185.587 62.1441C184.79 61.5178 184.131 61.3992 181.449 61.3992H178.259V65.5312ZM191.212 65.5312V69.6632H194.99C198.108 69.6632 198.767 69.5691 198.767 69.1243C198.767 68.6863 198.178 68.5853 195.619 68.5853H192.471V67.3278V66.0702H195.08C197.158 66.0702 197.688 65.9606 197.688 65.5312C197.688 65.1044 197.173 64.9923 195.21 64.9923H192.733L192.574 63.9122C192.487 63.3183 192.495 62.7524 192.593 62.6546C192.691 62.5569 194.12 62.4771 195.769 62.4771C198.194 62.4771 198.767 62.374 198.767 61.9382C198.767 61.4934 198.108 61.3992 194.99 61.3992H191.212V65.5312ZM2.68176 65.4813V68.5853L4.75056 68.5738C7.03019 68.5613 7.8613 68.1251 8.42474 66.6447C9.29903 64.3488 7.99587 62.8587 4.86713 62.5752L2.68176 62.3772V65.4813ZM15.5144 62.7168C15.3824 62.8483 15.2744 63.4142 15.2744 63.9744C15.2744 64.9862 15.2877 64.9923 17.5836 64.9923C18.8536 64.9923 20.1489 64.8942 20.4619 64.7742C21.3628 64.4289 21.1433 63.2205 20.1082 62.8275C19.0619 62.4304 15.8781 62.3535 15.5144 62.7168ZM179.699 63.6866V64.9923H182.204C184.251 64.9923 184.774 64.8737 185.058 64.3441C185.666 63.2087 184.955 62.7563 182.258 62.5634L179.699 62.3805V63.6866Z" fill="#858585"/>
</svg>
