<svg width="173" height="70" viewBox="0 0 173 70" fill="none" xmlns="http://www.w3.org/2000/svg">
<path id="Vector" fill-rule="evenodd" clip-rule="evenodd" d="M120.997 0.115154C118.265 0.762219 117.288 4.0821 119.253 6.03688C119.877 6.65751 120.96 7.13065 121.756 7.13065C122.386 7.13065 123.532 6.68935 124.087 6.23256C126.225 4.47463 125.478 0.986378 122.794 0.189922C122.011 -0.0422683 121.714 -0.054681 120.997 0.115154ZM0.311758 1.28939C0.921134 5.33403 0.92084 27.7655 0.311318 31.81L0.234375 32.3211H4.20148H8.16874L8.09767 31.81C7.84849 30.016 7.58961 25.1341 7.58961 22.2296V18.8132L8.87444 18.8127C14.9751 18.8103 19.1698 17.1786 20.9128 14.1299C21.7731 12.6252 22.0519 11.3948 22.0519 9.10208C22.0519 7.39336 21.9981 6.88693 21.7238 6.01789C20.922 3.47826 19.1319 1.92375 16.0704 1.10861C14.8976 0.796391 14.6202 0.78573 7.54644 0.782079L0.234669 0.778283L0.311758 1.28939ZM7.82455 3.93636C7.77346 4.28771 7.69196 7.19564 7.64336 10.3987L7.55496 16.2221L8.66916 16.1183C12.526 15.7589 14.1013 14.2926 14.5325 10.6604C14.6509 9.66269 14.6503 8.95152 14.53 8.00421C14.2488 5.78848 13.5478 4.63147 12.0391 3.89284C11.1923 3.47826 10.9167 3.42058 9.50335 3.36275L7.91765 3.29776L7.82455 3.93636ZM35.8498 9.8169C33.4435 10.3983 31.5155 12.3926 30.576 15.2719C30.4384 15.6936 30.2876 16.0386 30.2411 16.0386C30.1944 16.0386 30.1967 14.7406 30.2461 13.1545L30.3358 10.2703H27.0412H23.7466L23.8542 11.2926C23.9949 12.6263 23.9945 29.4669 23.8538 31.0813L23.7454 32.324L27.2801 32.3226L30.8146 32.3211L30.7275 31.5909C30.5839 30.3872 30.3534 25.1543 30.3544 23.1211C30.3563 18.9157 31.0237 17.0349 32.8012 16.2256C33.8414 15.7521 35.3962 15.7309 36.8027 16.171C37.3235 16.3341 37.7675 16.4495 37.7897 16.4276C37.8117 16.4057 37.7583 15.767 37.6708 15.0083C37.5185 13.687 37.5755 11.0874 37.7785 10.0878L37.8749 9.61319L37.2324 9.6256C36.8792 9.63247 36.2569 9.71848 35.8498 9.8169ZM68.472 9.7728C64.0149 10.3695 61.2831 13.4767 61.5067 17.6947C61.5862 19.1915 62.0343 20.2203 63.0334 21.1998C64.0058 22.1528 65.0527 22.7397 68.039 24.0058C70.6575 25.116 71.4616 25.5476 72.0048 26.1337C72.9215 27.1232 72.827 28.8774 71.7995 29.9441C70.8487 30.9313 68.3777 31.0781 66.6041 30.2526C65.3549 29.6714 64.2698 28.5703 63.5821 27.1865C63.1463 26.3096 62.9869 26.1148 62.7048 26.1148C62.5152 26.1148 62.36 26.2009 62.36 26.3061C62.36 26.4113 62.2302 27.5386 62.0716 28.8111C61.9129 30.0835 61.823 31.1888 61.8718 31.2673C62.0572 31.5655 64.3917 32.527 65.517 32.7685C67.1151 33.1114 70.1531 33.1178 71.5278 32.7812C73.9314 32.1926 75.9892 30.6435 76.9438 28.7045C77.7694 27.0273 77.9945 25.1045 77.5596 23.444C76.9796 21.2297 75.6923 20.2484 70.8205 18.307C67.8331 17.1166 67.0299 16.6687 66.512 15.9044C66.1429 15.3597 66.0621 14.3182 66.3336 13.602C66.7785 12.4287 68.1526 11.7311 69.8244 11.8299C71.7218 11.9422 73.3526 13.0852 74.4828 15.0951C75.2129 16.3934 75.4462 16.3597 75.7876 14.9068C75.9338 14.2843 76.2366 13.3151 76.4604 12.7529C76.7091 12.128 76.8168 11.669 76.7373 11.5721C76.4939 11.2752 74.3307 10.3506 73.226 10.0714C71.8534 9.72447 69.7975 9.59537 68.472 9.7728ZM135.412 9.88933C133.583 10.3835 132.099 11.1573 130.388 12.5105L129.623 13.1155L130.141 14.5381C130.426 15.3204 130.678 15.9793 130.701 16.0021C130.723 16.0248 131.08 15.5924 131.492 15.0413C132.406 13.8185 133.478 13.0604 134.746 12.7405C137.859 11.9548 140.45 13.9734 140.302 17.0694L140.257 17.9932L139.291 18.4653C138.76 18.725 137.042 19.3379 135.473 19.8275C131.4 21.0993 130.065 21.8019 128.943 23.2642C127.738 24.8355 127.69 27.9962 128.839 30.0962C129.376 31.0762 130.602 32.1556 131.631 32.5542C132.8 33.0066 135.242 33.1117 136.452 32.7618C138.128 32.2773 139.635 31.2499 140.345 30.1083L140.671 29.5831L140.96 30.3539C141.332 31.3462 142.258 32.2735 143.193 32.5904C144.521 33.0403 147.236 32.8392 149.178 32.1469C149.858 31.9045 149.875 31.8834 149.875 31.2904V30.6826L149.084 30.6014C147.942 30.4842 147.411 30.1604 147.036 29.3536C146.723 28.681 146.719 28.5706 146.764 22.2836C146.803 16.8047 146.776 15.7668 146.575 14.982C145.936 12.4953 144.418 10.9279 141.835 10.0882C140.251 9.57332 136.959 9.47154 135.412 9.88933ZM91.3035 9.9901C90.0509 10.3251 88.7997 11.0678 87.7271 12.1132L86.7351 13.0798V11.6752V10.2703H83.425H80.1149L80.2313 14.9433C80.3761 20.7583 80.376 21.8305 80.23 27.7306L80.1122 32.4861L81.2579 32.3551C82.2559 32.2409 86.1733 32.2874 86.7174 32.4198C86.8718 32.4573 86.9014 32.1651 86.8603 31.0068C86.8318 30.2036 86.8099 27.0165 86.8119 23.9243C86.8152 18.0255 86.9057 16.9116 87.4872 15.6005C88.1064 14.2046 88.9306 13.7003 90.5848 13.7053C92.5093 13.711 93.3471 14.377 93.8877 16.3306C94.1186 17.1654 94.1504 17.9494 94.1504 22.829C94.1504 25.8811 94.1004 29.3017 94.0395 30.4303L93.9286 32.4825L94.9205 32.3728C96.1799 32.2335 98.7119 32.2316 99.9504 32.369L100.905 32.4749V25.0233C100.905 18.3333 100.932 17.4749 101.166 16.6227C101.749 14.5044 102.693 13.7021 104.604 13.7021C105.892 13.7021 106.477 13.9169 107.095 14.6162C107.629 15.2214 107.963 16.1399 108.168 17.5719C108.352 18.8603 108.36 25.2733 108.18 28.4513C108.105 29.7765 108.026 31.219 108.005 31.6569L107.967 32.4531L108.768 32.3871C109.769 32.3046 113.117 32.3011 114.194 32.3814C114.814 32.4277 114.991 32.3966 114.956 32.2469C114.931 32.1397 114.854 28.4654 114.784 24.0818C114.646 15.4804 114.584 14.7998 113.799 13.1476C113.597 12.7221 113.12 12.0649 112.739 11.6873C111.407 10.365 109.765 9.75922 107.513 9.75922C105.108 9.75922 103.332 10.4679 101.714 12.0731C101.175 12.6076 100.602 13.2342 100.44 13.4654L100.147 13.8858L99.6936 13.0874C98.8143 11.5379 97.3605 10.4215 95.6187 9.95797C94.6628 9.70373 92.3089 9.72111 91.3035 9.9901ZM162.503 9.9898C161.128 10.3498 159.865 11.0788 158.726 12.1699L157.658 13.1932V11.7318V10.2703H154.42H151.182L151.299 13.1179C151.452 16.8143 151.45 25.6568 151.296 29.4833L151.175 32.4868L152.324 32.3554C152.956 32.2833 154.522 32.2647 155.806 32.3144L158.138 32.4048L158.043 31.7789C157.85 30.5066 157.758 19.075 157.932 17.9757C158.418 14.9127 159.506 13.7025 161.769 13.7067C164.719 13.7121 165.436 15.3668 165.439 22.1719C165.439 24.59 165.2 31.713 165.098 32.3201C165.084 32.401 165.165 32.4477 165.276 32.424C165.896 32.2928 169.939 32.2428 170.913 32.3545C171.54 32.4264 172.071 32.4681 172.092 32.4473C172.113 32.4265 172.075 31.831 172.008 31.1241C171.941 30.417 171.865 26.6186 171.839 22.683C171.809 18.1081 171.732 15.2377 171.625 14.7243C170.973 11.5753 168.416 9.7433 164.709 9.76886C163.94 9.77412 162.947 9.87356 162.503 9.9898ZM39.1614 10.5624C39.2237 10.723 41.3584 15.6709 43.905 21.5574L48.5353 32.2605L46.8779 35.7955C44.5944 40.6661 43.2409 43.3152 42.3348 44.687L42.0762 45.0783L44.2022 45.0761L46.3283 45.0739L47.4619 42.2752C49.2207 37.9329 53.188 28.5032 55.0904 24.1433C56.5341 20.8345 61.1188 10.5805 61.2605 10.3433C61.2844 10.3032 60.4207 10.2703 59.3412 10.2703H57.3783L56.0707 13.7021C55.3515 15.5895 54.1453 18.7591 53.3904 20.7458C52.6356 22.7322 51.9724 24.3094 51.9171 24.2505C51.6216 23.9364 48.1924 15.2982 47.0049 11.8767L46.4474 10.2703H42.7477C39.1081 10.2703 39.0499 10.275 39.1614 10.5624ZM118.212 10.7652C118.257 11.0376 118.372 13.5105 118.469 16.2607C118.605 20.1448 118.605 22.3816 118.468 26.2801C118.372 29.0403 118.256 31.5289 118.212 31.81L118.132 32.3211H121.754H125.375L125.3 31.9455C125.258 31.739 125.143 29.2314 125.045 26.3731C124.903 22.2883 124.903 20.0914 125.043 16.1071C125.141 13.319 125.256 10.8653 125.298 10.6541L125.375 10.2703H121.753H118.132L118.212 10.7652ZM139.039 20.647C136.762 21.3167 135.483 22.2227 134.854 23.6105C134.432 24.5426 134.331 26.7773 134.66 27.902C135.083 29.3501 136.24 30.0686 137.804 29.8553C138.808 29.7185 139.495 29.1985 139.986 28.2031L140.404 27.356L140.452 23.8148C140.479 21.867 140.446 20.277 140.379 20.2812C140.312 20.2855 139.709 20.4502 139.039 20.647ZM92.2931 35.0401C85.5163 35.5691 80.8517 39.5513 79.968 45.5618C79.7258 47.209 79.8719 50.2536 80.2647 51.7433C80.608 53.0459 81.3458 54.6882 82.0358 55.6854C83.6098 57.9606 86.3185 59.6096 89.6699 60.333C92.8044 61.0097 98.9445 60.6175 102.961 59.4841L103.695 59.2769V54.1959V49.1147H101.668C99.7127 49.1147 99.6446 49.1249 99.7228 49.4068C99.8694 49.9345 99.9957 55.5154 99.887 56.6609L99.7805 57.7817L98.8744 58.1409C96.6294 59.0311 93.361 59.3045 91.287 58.7756C87.6835 57.8567 85.3947 55.4551 84.3072 51.4512C83.934 50.0774 83.8472 46.3251 84.1538 44.8202C84.6689 42.2918 85.4869 40.6751 87.0378 39.1203C89.2664 36.886 92.8682 35.9536 96.324 36.7162C98.3868 37.1715 100.541 38.5382 101.575 40.0472C101.794 40.3677 102.052 40.5703 102.242 40.5709C102.512 40.5717 102.563 40.4609 102.643 39.6992C102.694 39.2192 102.894 38.4375 103.088 37.962L103.441 37.0975L102.54 36.6614C99.8833 35.3755 95.9559 34.7541 92.2931 35.0401ZM125.119 42.4882C122.008 42.7698 119.505 44.37 118.264 46.8693C117.534 48.3422 117.282 49.5248 117.279 51.4955C117.275 54.5624 117.961 56.4657 119.687 58.1821C121.41 59.8965 123.259 60.5707 126.248 60.5757C130.777 60.583 133.927 58.2697 134.994 54.1528C135.321 52.8898 135.319 50.1958 134.989 48.8373C134.586 47.1761 133.946 46.0237 132.782 44.8664C130.876 42.971 128.372 42.1937 125.119 42.4882ZM163.751 42.4916C161.771 42.7279 160.405 43.5773 159.205 45.3179L158.802 45.902L158.884 44.4052L158.967 42.9084H157.321H155.675V56.4541V69.9998L157.364 70H159.053L159.003 63.7923L158.954 57.5845L159.388 58.1687C160.663 59.884 162.221 60.5782 164.795 60.5782C169.411 60.5782 172.202 57.2227 172.203 51.6703C172.203 48.9468 171.776 47.1661 170.741 45.5822C169.196 43.2174 166.746 42.1341 163.751 42.4916ZM114.258 42.6071C112.943 42.9202 111.543 44.05 110.446 45.683L109.906 46.4861L110 45.1719C110.051 44.449 110.131 43.6441 110.178 43.383L110.262 42.9084H108.335H106.408L106.52 43.529C106.662 44.3171 106.665 58.6983 106.524 59.4882L106.418 60.0774L108.213 60.0776H110.009V54.5211V48.9646L110.492 47.9871C111.365 46.2223 112.766 45.4102 114.62 45.5948C115.153 45.6478 115.791 45.7278 116.037 45.7725L116.486 45.8538L116.492 44.1621L116.498 42.4703L115.603 42.4852C115.111 42.4935 114.505 42.5483 114.258 42.6071ZM137.496 47.4719C137.578 55.4169 137.614 56.158 137.966 57.2479C138.366 58.4866 139.387 59.6529 140.511 60.1556C141.202 60.4643 141.5 60.5017 143.275 60.5034L145.264 60.5052L146.369 59.9622C147.413 59.4492 148.427 58.5673 149.186 57.5115C149.443 57.1536 149.447 57.1754 149.369 58.6135L149.29 60.0807H151.046H152.803L152.697 59.7087C152.557 59.2137 152.564 44.3228 152.705 43.529L152.815 42.9084H150.968C149.265 42.9084 149.128 42.9285 149.204 43.168C149.25 43.311 149.302 45.6931 149.32 48.4617C149.348 52.8376 149.319 53.6275 149.097 54.5039C148.743 55.8983 148.385 56.6478 147.787 57.2418C146.909 58.1151 146.326 58.3147 144.651 58.3147C143.259 58.3147 143.128 58.2883 142.451 57.8718C141.898 57.5321 141.627 57.2275 141.287 56.5658L140.845 55.7029L140.855 50.5105C140.86 47.6545 140.911 44.7758 140.968 44.1131L141.072 42.9084H139.26H137.449L137.496 47.4719ZM124.476 44.0382C123.092 44.5241 121.822 46.2656 121.288 48.412C120.949 49.7727 120.946 53.2629 121.282 54.6109C121.82 56.7695 122.76 58.1063 124.254 58.8378C125.144 59.2734 125.273 59.2965 126.497 59.2382C127.568 59.1874 127.913 59.1084 128.459 58.7902C130.352 57.6875 131.317 55.5699 131.474 52.1814C131.66 48.1347 130.472 45.1984 128.217 44.1339C127.625 43.8548 127.254 43.7894 126.308 43.7976C125.639 43.8033 124.85 43.9069 124.476 44.0382ZM162.496 44.559C160.737 45.0534 159.593 46.4213 159.024 48.7101C158.639 50.2606 158.686 53.3032 159.119 54.8587C159.931 57.7718 162.023 59.3341 164.443 58.8346C165.955 58.5224 166.962 57.657 167.714 56.0223C168.777 53.7144 168.786 49.4999 167.734 47.2135C167.282 46.2334 166.335 45.2025 165.53 44.8148C164.735 44.4321 163.359 44.3161 162.496 44.559Z" fill="#858585"/>
</svg>
