<svg width="156" height="50" viewBox="0 0 156 50" fill="none" xmlns="http://www.w3.org/2000/svg">
<path id="Vector" fill-rule="evenodd" clip-rule="evenodd" d="M0.466585 0.109296C0.28313 0.182814 0.23219 2.19207 0.234446 9.28436C0.236138 14.2789 0.299483 18.462 0.375421 18.5801C0.457939 18.7081 1.38537 18.846 2.6752 18.922C3.86409 18.992 5.34433 19.1634 5.96462 19.303C6.58491 19.4426 7.38846 19.6116 7.7503 19.6786C8.69371 19.8531 12.2792 21.0605 12.7718 21.3695C13.0008 21.5132 13.3066 21.6308 13.4513 21.6308C13.5961 21.6308 13.9478 21.8129 14.2327 22.0353C14.6169 22.3354 14.828 22.3915 15.0496 22.2529C15.3045 22.0932 15.3443 21.6228 15.3214 19.05C15.2991 16.5416 15.3438 15.9853 15.5878 15.7431C15.8464 15.4864 16.8629 15.4588 24.2019 15.5093C32.2131 15.5644 32.5382 15.5803 32.9377 15.9393C33.8792 16.7855 33.8777 16.7704 33.8777 25.4687V33.6167L33.148 34.3413L32.4181 35.0656H30.3396C28.2904 35.0656 27.8167 35.2015 28.1973 35.6803C28.3533 35.8762 28.7505 36.7571 29.6456 38.8908C30.0796 39.9258 30.6823 41.873 30.6851 42.2495C30.6866 42.4548 30.808 42.9655 30.9552 43.3846C31.1024 43.8037 31.3287 45.3836 31.458 46.8955C31.6618 49.2757 31.7416 49.6704 32.054 49.8365C32.283 49.9579 33.9721 50.001 36.6707 49.9542C41.2186 49.8753 41.2114 49.8764 43.652 48.7255C44.8935 48.1398 47.1688 45.9678 47.7972 44.7685C48.0391 44.3067 48.4107 43.467 48.6231 42.9026C49.0017 41.8961 49.009 41.5612 49.009 25.456C49.009 9.07369 49.0081 9.03283 48.5989 7.82276C48.0799 6.28839 47.6357 5.4461 46.6886 4.20095C45.1264 2.14691 42.5757 0.53119 40.3148 0.163598C39.2131 -0.0155334 0.908495 -0.0675963 0.466585 0.109296ZM66.02 0.15968C59.4978 1.10945 54.1319 6.07324 52.5928 12.5809C52.3154 13.754 52.2894 15.7221 52.3381 31.8935L52.3924 49.8999L59.231 49.949C64.1221 49.9839 66.143 49.9376 66.3268 49.7861C66.5411 49.6096 66.5839 46.5552 66.5839 31.461V13.3476L67.089 12.8244C67.6332 12.2605 68.5346 12.1258 69.2437 12.5026C70.1679 12.9937 70.1553 12.7268 70.1553 31.7877C70.1553 49.214 70.1634 49.6111 70.5188 49.8001C70.91 50.0079 83.2367 50.0822 83.7675 49.8799C84.0357 49.7777 84.065 48.0285 84.0673 32.0135C84.0694 16.2287 84.0353 14.105 83.7607 12.8608C82.425 6.81104 78.0815 2.22976 72.0188 0.47633C70.7837 0.119001 67.4924 -0.0547177 66.02 0.15968ZM83.9709 0.171063C82.6511 0.357658 80.657 0.915387 80.2166 1.22103C80.0128 1.36265 79.6929 1.47853 79.5059 1.47853C78.6619 1.47853 78.9777 2.07246 80.6546 3.63949C82.1889 5.07328 84.0648 7.55145 84.0648 8.14464C84.0648 8.25305 84.2321 8.70778 84.4366 9.15523C84.6412 9.6025 84.8103 10.1658 84.8126 10.4069C84.8148 10.648 84.9532 11.1307 85.1201 11.4798C85.3878 12.0396 85.5088 12.1144 86.1473 12.1144C86.689 12.1144 87.0385 12.2602 87.5357 12.6936L88.2001 13.2726V31.4091C88.2001 45.2662 88.2533 49.5982 88.4257 49.7693C88.6892 50.0309 101.66 50.0932 102.07 49.835C102.265 49.712 102.31 46.1734 102.301 31.666C102.289 11.5235 102.322 12.0734 100.95 9.12892C99.7815 6.62258 98.6353 5.197 96.3767 3.44133C92.9108 0.747082 88.3682 -0.450298 83.9709 0.171063ZM114.234 0.112843C113.612 0.1914 112.702 0.526713 111.132 1.25611C109.718 1.9133 107.45 4.19852 106.745 5.67692C106.452 6.29268 106.139 6.93569 106.05 7.10568C105.558 8.04425 105.475 11.0542 105.53 26.0158C105.583 40.4718 105.61 41.5591 105.928 42.3428C106.116 42.8046 106.319 43.3504 106.38 43.5557C106.573 44.2108 108.051 46.3309 108.806 47.0351C109.782 47.947 111.4 48.9445 112.751 49.4672L113.858 49.8954L134.44 49.9514C145.76 49.982 155.213 49.9605 155.445 49.9033L155.868 49.7995V34.353C155.868 22.5878 155.814 18.8531 155.643 18.6826C155.471 18.512 151.773 18.4587 140.149 18.4587C126.519 18.4587 124.849 18.4902 124.585 18.7518C124.329 19.006 124.29 19.8249 124.29 24.8867C124.29 29.5879 124.34 30.7695 124.546 30.9391C124.726 31.0874 127.28 31.1634 133.145 31.1953L141.489 31.2404V33.4796V35.7187L131.105 35.7668C120.924 35.8142 120.714 35.8079 120.344 35.4403C119.975 35.0742 119.967 34.8311 119.967 24.9251C119.967 15.3498 119.986 14.7674 120.309 14.4767C120.622 14.1961 122.2 14.1647 138.213 14.1213L155.774 14.0737L155.824 7.18218C155.862 1.79275 155.821 0.258014 155.636 0.141019C155.406 -0.00359178 115.372 -0.0308348 114.234 0.112843ZM0.600418 20.7445C0.596471 20.8728 0.592523 27.4012 0.591583 35.2522L0.589891 49.5267L15.0252 49.62C22.9645 49.6713 29.5674 49.6829 29.6981 49.6458C30.102 49.5308 29.5836 45.0098 28.8926 42.6227C28.7441 42.1096 28.5428 41.3958 28.4455 41.0366C28.3481 40.6775 28.0838 39.9217 27.8579 39.3573C27.6321 38.7928 27.3479 38.0679 27.2263 37.7462C27.1047 37.4247 26.9124 37.0469 26.7991 36.9066C26.6857 36.7664 26.537 36.4703 26.4688 36.2486C26.4004 36.0269 26.2209 35.7439 26.0697 35.6194C25.9188 35.495 25.7951 35.2457 25.7951 35.0656C25.7951 34.8855 25.6594 34.6264 25.4936 34.4898C25.3278 34.353 25.1241 34.0699 25.041 33.8604C24.8203 33.3042 21.842 29.6863 20.8835 28.8104C18.017 26.1906 15.4729 24.5504 11.6036 22.8272C10.6929 22.4216 9.42264 21.9939 8.3142 21.7198C7.7456 21.5793 6.94204 21.38 6.52852 21.2772C5.58492 21.0423 1.81581 20.5069 1.12447 20.5093C0.840075 20.5105 0.604365 20.6163 0.600418 20.7445Z" fill="#858585"/>
</svg>
