<svg width="148" height="50" viewBox="0 0 148 50" fill="none" xmlns="http://www.w3.org/2000/svg">
<path id="Vector" fill-rule="evenodd" clip-rule="evenodd" d="M1.20393 0.956428C0.53049 1.62786 0.265625 2.3092 0.265625 3.36991C0.265625 4.60715 1.10073 6.17686 5.39667 13.0143C15.4069 28.9478 17.6577 32.5658 17.8113 32.9714C18.2379 34.0992 19.5805 34.7489 21.2584 34.6388C22.8763 34.5328 23.0727 34.3955 24.4184 32.4289C25.2077 31.2755 25.9954 30.1603 26.1689 29.9506C26.3428 29.7409 26.5955 29.3119 26.7308 28.9974C26.8657 28.6828 28.6051 25.8519 30.5956 22.7063C32.5861 19.5608 35.5443 14.8425 37.1694 12.2212C38.7942 9.59996 40.5519 6.81283 41.0751 6.0274C42.8398 3.37944 41.5678 0.0203946 38.8003 0.0203946C37.0058 0.0203946 36.3374 0.598409 34.2693 3.93648C31.858 7.82931 27.9106 14.1238 27.4008 14.8902C27.1913 15.2047 26.4965 16.32 25.8567 17.3685C22.6053 22.6968 21.3956 24.5113 21.0707 24.5464C20.8743 24.5677 19.2148 22.1893 17.3833 19.2611C15.5518 16.3329 13.731 13.4223 13.3369 12.7931C10.5457 8.33527 9.44495 6.52382 8.81814 5.35826C8.42371 4.62431 8.00634 3.93801 7.8913 3.83316C7.77588 3.72831 7.2664 3.04201 6.75884 2.30805C5.48687 0.469538 4.86312 0.0467027 3.40158 0.0325955C2.56227 0.0245887 1.82883 0.33266 1.20393 0.956428ZM51.4859 0.603366C43.772 3.00426 38.8679 9.56527 38.8679 17.484C38.8679 22.6495 40.4896 26.3959 44.2761 29.9792C48.0507 33.551 50.9875 34.7165 56.2153 34.7165C61.2813 34.7165 64.9803 33.3153 67.9901 30.2556C69.3274 28.8964 69.5889 28.3858 69.5552 27.2008C69.4841 24.6989 66.7086 23.2458 64.3546 24.4777C63.8956 24.7179 63.3812 25.1492 63.2118 25.4355C63.0421 25.7218 62.0198 26.4028 60.9397 26.9488C56.9862 28.9474 51.8593 28.1041 48.6802 24.933C46.6981 22.9553 45.9868 21.2125 45.8198 17.9194C45.6975 15.5105 45.8175 14.7331 46.5544 13.1699C47.6138 10.9207 49.6223 8.83626 51.6843 7.84495C53.585 6.93141 57.433 6.64698 59.3734 7.27684C61.1499 7.85333 64.0932 9.88172 64.0932 10.5295C64.0932 10.7857 64.3218 11.0831 64.6008 11.1903C64.8798 11.297 65.3877 11.9585 65.729 12.6608L66.3501 13.937L60.4095 14.1276C54.7396 14.3095 54.4357 14.3594 53.739 15.2184C52.6558 16.5548 52.7751 18.7315 53.9947 19.8757C54.9582 20.7794 55.1474 20.8026 62.4987 20.9227C72.0862 21.0794 73.1112 20.7908 73.7751 17.7497C73.8668 17.3303 73.9616 17.7738 73.9861 18.7353C74.0423 20.9578 75.3058 24.8178 76.6336 26.8249C78.8125 30.118 82.9246 33.2174 86.4963 34.2582C89.1461 35.0303 94.6819 34.8431 97.2346 33.8953C98.4515 33.4435 99.8768 32.8128 100.402 32.4941C101.893 31.5897 105.353 28.1906 106.341 26.6602C108.622 23.1246 109.549 17.0291 108.081 15.2184C107.362 14.3324 107.228 14.3163 99.4059 14.2004C95.0362 14.1356 91.0605 14.1829 90.5709 14.3057C88.165 14.9081 87.3899 17.7528 89.0934 19.7301C90.0114 20.7958 90.037 20.8007 95.7865 20.9906L101.558 21.1812L100.883 22.4345C97.4819 28.748 88.6714 29.9319 83.7047 24.742C80.4388 21.3295 79.9209 14.6012 82.6945 11.6158C83.1845 11.0885 83.5854 10.523 83.5854 10.3598C83.5854 9.89011 86.7023 7.80987 88.1333 7.32412C89.7828 6.76441 92.8244 6.75831 94.6731 7.31078C95.4597 7.54603 97.11 8.48968 98.3407 9.4078C99.5714 10.3263 100.84 11.0751 101.159 11.0721C102.49 11.0602 103.333 10.581 104.171 9.3609C105.332 7.67108 105.022 6.20165 103.148 4.51488C96.2019 -1.73653 85.3054 -1.36097 78.6952 5.35826C76.5014 7.58835 74.0862 12.8599 73.9792 15.6512C73.9318 16.8987 73.9104 16.8736 73.6612 15.2714C72.7646 9.50998 69.4433 4.64184 64.7949 2.27603C60.5074 0.093981 55.246 -0.567152 51.4859 0.603366ZM124.572 0.687628C124.155 1.05442 122.221 3.92848 120.275 7.07401C115.71 14.4483 113.078 18.6343 112.194 19.9268C111.805 20.4949 111.486 21.0646 111.486 21.1923C111.486 21.3204 110.928 22.2282 110.247 23.2096C109.566 24.191 108.684 25.5945 108.288 26.3285C107.892 27.0624 107.461 27.7487 107.33 27.8536C106.688 28.3656 105.753 30.5751 105.753 31.5782C105.753 32.1993 106.11 33.1594 106.545 33.7119C107.184 34.5213 107.66 34.7165 108.996 34.7165C111.06 34.7165 111.284 34.466 116.016 26.8725C117.966 23.7423 120.583 19.5768 121.831 17.6163C123.078 15.6554 124.099 13.9976 124.099 13.932C124.099 13.8664 124.665 12.9552 125.357 11.9071L126.615 10.0014L127.414 11.2067C129.956 15.0412 131.361 17.3849 131.361 17.794C131.361 18.049 131.509 18.3152 131.691 18.3853C132.005 18.5062 133.251 20.4206 139.221 29.9506C140.666 32.2573 142.025 34.2708 142.242 34.4249C143.087 35.0257 145.873 34.728 146.649 33.954C147.62 32.9852 147.669 30.4562 146.744 29.0546C145.839 27.6828 145.233 26.7021 144.589 25.5659C144.292 25.0417 143.008 22.9828 141.737 20.9906C137.807 14.8356 132.324 6.00796 132.163 5.5775C132.079 5.35216 131.892 5.08184 131.748 4.97699C131.604 4.87214 131.009 3.96851 130.428 2.9688C129.846 1.96948 129.005 0.896949 128.56 0.585827C127.467 -0.17825 125.498 -0.127922 124.572 0.687628ZM138.032 0.956428C137.321 1.66522 137.097 2.28899 137.106 3.53004C137.119 5.2923 137.567 6.1212 138.884 6.82122C140.894 7.88917 143.745 6.88184 144.169 4.95373C144.547 3.23875 144.068 1.27365 143.109 0.603366C141.767 -0.333811 139.142 -0.15118 138.032 0.956428ZM139.474 1.03802C139.207 1.14554 138.73 1.73233 138.413 2.34237C137.899 3.33559 137.902 3.57389 138.442 4.61554C139.075 5.83638 140.264 6.50095 141.323 6.22452C141.876 6.0804 141.854 5.95191 141.146 5.15314C140.387 4.29526 140.335 4.2865 140.22 4.99262C139.962 6.57225 139.387 5.64041 139.387 3.64252V1.5455H140.699C141.685 1.5455 142.072 1.73919 142.259 2.32635C142.396 2.75567 142.324 3.32759 142.1 3.59677C141.807 3.94907 141.844 4.29107 142.231 4.81761C142.748 5.52031 142.785 5.50772 143.171 4.50039C144.062 2.17232 141.838 0.0894056 139.474 1.03802ZM140.151 2.91161C140.151 3.58495 140.974 3.46789 141.21 2.76101C141.294 2.51165 141.089 2.30805 140.756 2.30805C140.423 2.30805 140.151 2.5799 140.151 2.91161ZM1.03003 46.3455C1.03003 49.7133 1.08354 49.9676 1.79443 49.9676C2.50532 49.9676 2.55883 49.7133 2.55883 46.3455C2.55883 42.9776 2.50532 42.7233 1.79443 42.7233C1.08354 42.7233 1.03003 42.9776 1.03003 46.3455ZM4.46984 43.4607C4.46984 43.9815 4.77827 44.2332 5.52089 44.3186C6.54748 44.4364 6.57462 44.5031 6.68431 47.2033C6.79209 49.854 6.8349 49.9676 7.73536 49.9676C8.64882 49.9676 8.67405 49.8906 8.67405 47.108C8.67405 44.3121 8.69545 44.2484 9.62955 44.2484C10.3301 44.2484 10.5851 44.0452 10.5851 43.4859C10.5851 42.787 10.3301 42.7233 7.52744 42.7233C4.75954 42.7233 4.46984 42.7931 4.46984 43.4607ZM13.4519 43.5812C13.2979 44.0528 13.137 44.5249 13.0942 44.6297C13.0514 44.7346 12.8083 45.5425 12.5545 46.4248C12.3008 47.307 11.9258 48.1321 11.7213 48.2583C11.5169 48.3841 11.3495 48.8203 11.3495 49.2275C11.3495 50.2669 13.1198 50.2482 13.4516 49.205C13.6041 48.7258 14.0298 48.4425 14.5982 48.4425C15.1665 48.4425 15.5923 48.7258 15.7448 49.205C15.8999 49.6923 16.323 49.9676 16.917 49.9676C18.0422 49.9676 18.0429 49.9462 17.0668 46.885C15.9577 43.4058 15.5495 42.7233 14.5783 42.7233C14.0382 42.7233 13.6304 43.0337 13.4519 43.5812ZM19.7579 46.3455V49.9676H22.2422C24.4716 49.9676 24.7265 49.8894 24.7265 49.205C24.7265 48.5695 24.4716 48.4425 23.1977 48.4425H21.6689V45.5829C21.6689 42.787 21.6475 42.7233 20.7134 42.7233C19.7613 42.7233 19.7579 42.7359 19.7579 46.3455ZM26.6375 46.3455C26.6375 49.7133 26.691 49.9676 27.4019 49.9676C28.1128 49.9676 28.1663 49.7133 28.1663 46.3455C28.1663 42.9776 28.1128 42.7233 27.4019 42.7233C26.691 42.7233 26.6375 42.9776 26.6375 46.3455ZM31.6015 45.279C31.0936 46.7042 30.6456 48.0421 30.6059 48.2518C30.5661 48.4615 30.4125 48.9332 30.2646 49.3004C30.0479 49.8372 30.1969 49.9676 31.0278 49.9676C31.7384 49.9676 32.1221 49.7301 32.2597 49.205C32.4015 48.6648 32.781 48.4425 33.5618 48.4425C34.4088 48.4425 34.6637 48.6186 34.6637 49.205C34.6637 49.8014 34.9186 49.9676 35.8329 49.9676C36.616 49.9676 36.9126 49.8231 36.7307 49.5295C36.5812 49.2885 35.9831 47.7017 35.401 46.0027C34.5078 43.3967 34.2005 42.8964 33.4334 42.8007C32.627 42.7001 32.4206 42.9796 31.6015 45.279ZM38.4857 46.3455V49.9676H39.4783C40.4296 49.9676 40.4651 49.8906 40.3383 48.097C40.2653 47.0684 40.3042 46.2875 40.4246 46.3622C40.5454 46.4366 41.1386 47.2784 41.7432 48.2328C42.5279 49.4712 43.0939 49.9676 43.7215 49.9676C44.5776 49.9676 44.6009 49.8711 44.6009 46.3455C44.6009 42.7577 44.5922 42.7233 43.6665 42.7233C42.8275 42.7233 42.7198 42.9029 42.6154 44.4761L42.4988 46.2284L41.3924 44.4761C40.5882 43.2018 40.0401 42.7233 39.3858 42.7233C38.5037 42.7233 38.4857 42.7954 38.4857 46.3455ZM51.3487 43.4207C51.0009 43.8043 50.7162 44.4604 50.7162 44.8791C50.7162 45.682 51.977 47.0234 53.1049 47.4207C53.473 47.5499 53.7738 47.8328 53.7738 48.0494C53.7738 48.5607 52.5133 48.5576 51.9996 48.0452C51.471 47.5179 50.5484 48.6003 50.8526 49.3907C51.0135 49.809 51.6533 49.9676 53.1814 49.9676C55.0912 49.9676 55.3098 49.8814 55.5204 49.0445C55.9068 47.5076 55.5533 46.7633 54.057 45.9642C52.107 44.9225 52.5423 43.9598 54.5837 44.7994C55.3332 45.1078 55.8151 43.7684 55.1818 43.1366C54.5049 42.4614 52.0542 42.6429 51.3487 43.4207ZM57.2136 43.4859C57.2136 44.0792 57.4685 44.2484 58.3602 44.2484H59.5068V47.108C59.5068 49.7133 59.5748 49.9676 60.2712 49.9676C60.9676 49.9676 61.0356 49.7133 61.0356 47.108V44.2484H62.1822C63.0739 44.2484 63.3288 44.0792 63.3288 43.4859C63.3288 42.787 63.0739 42.7233 60.2712 42.7233C57.4685 42.7233 57.2136 42.787 57.2136 43.4859ZM64.7517 42.9559C64.6237 43.0836 64.9684 43.8988 65.5177 44.767C66.0929 45.6759 66.5909 47.1137 66.6914 48.1565C66.8458 49.7594 66.97 49.9676 67.7727 49.9676C68.5409 49.9676 68.6796 49.7781 68.6796 48.7284C68.6796 48.0471 69.1887 46.5456 69.8113 45.3923C71.1972 42.8232 71.2052 42.7233 70.0273 42.7233C69.3477 42.7233 68.9013 43.0707 68.4415 43.9575L67.8017 45.1917L67.2158 43.9575C66.6669 42.8011 65.4164 42.2929 64.7517 42.9559ZM72.8838 46.3188V49.9676H75.3345C77.45 49.9676 77.7718 49.8765 77.6889 49.3004C77.6216 48.8321 77.1801 48.598 76.2101 48.5157L74.8273 48.3983L74.7157 45.6561C74.6129 43.1424 74.5323 42.9037 73.7438 42.792C72.9033 42.673 72.8838 42.7531 72.8838 46.3188ZM79.3812 46.3272V49.9676H81.8934C84.0796 49.9676 84.3896 49.881 84.2792 49.3004C84.1905 48.8341 83.7219 48.5977 82.7224 48.5149C80.9387 48.3674 80.6895 47.2987 82.4389 47.2987C83.3305 47.2987 83.5854 47.1294 83.5854 46.5361C83.5854 45.9428 83.3305 45.7735 82.4389 45.7735C81.5472 45.7735 81.2922 45.6043 81.2922 45.011C81.2922 44.3731 81.5472 44.2484 82.849 44.2484C84.1255 44.2484 84.3831 44.1283 84.2784 43.5812C84.1763 43.0459 83.6795 42.8915 81.7662 42.8004L79.3812 42.6871V46.3272ZM90.4651 46.3455C90.4651 49.7133 90.5186 49.9676 91.2295 49.9676C91.8242 49.9676 91.9939 49.7133 91.9939 48.8238C91.9939 47.8069 92.1211 47.6799 93.1405 47.6799C94.1086 47.6799 94.2871 47.5316 94.2871 46.7267C94.2871 45.9219 94.1086 45.7735 93.1405 45.7735C92.2488 45.7735 91.9939 45.6043 91.9939 45.011C91.9939 44.3937 92.2488 44.2484 93.3316 44.2484C94.4144 44.2484 94.6693 44.1032 94.6693 43.4859C94.6693 42.8156 94.4144 42.7233 92.5672 42.7233H90.4651V46.3455ZM97.3844 44.0712C95.9714 45.6759 95.8961 46.7382 97.0714 48.4814C97.8824 49.6847 98.1079 49.785 100.241 49.8883L102.537 50L103.38 48.502C104.51 46.4976 104.446 45.6702 103.038 44.0712C102.026 42.9212 101.611 42.7233 100.211 42.7233C98.8116 42.7233 98.3961 42.9212 97.3844 44.0712ZM106.135 46.3455C106.135 49.955 106.139 49.9676 107.091 49.9676C107.898 49.9676 108.046 49.7895 108.046 48.8238C108.046 48.1947 108.214 47.6799 108.419 47.6799C108.623 47.6799 109.058 48.1947 109.384 48.8238C109.801 49.6271 110.258 49.9676 110.923 49.9676C112.061 49.9676 112.085 49.7548 111.125 48.1844C110.487 47.14 110.461 46.9105 110.935 46.5174C111.706 45.8799 111.622 44.1081 110.787 43.3544C110.327 42.9384 109.415 42.7233 108.112 42.7233H106.135V46.3455ZM117.914 46.3447L118.036 49.9676H120.303C122.315 49.9676 122.57 49.8818 122.57 49.205C122.57 48.5695 122.315 48.4425 121.041 48.4425H119.512V45.5829C119.512 42.872 119.468 42.7233 118.652 42.7226C117.812 42.7218 117.795 42.8053 117.914 46.3447ZM124.481 46.3455C124.481 49.955 124.484 49.9676 125.436 49.9676C126.389 49.9676 126.392 49.955 126.392 46.3455C126.392 42.7359 126.389 42.7233 125.436 42.7233C124.484 42.7233 124.481 42.7359 124.481 46.3455ZM129.067 46.3455C129.067 49.7133 129.121 49.9676 129.832 49.9676C130.426 49.9676 130.596 49.7133 130.596 48.8238C130.596 47.8069 130.723 47.6799 131.743 47.6799C132.711 47.6799 132.889 47.5316 132.889 46.7267C132.889 45.9219 132.711 45.7735 131.743 45.7735C130.851 45.7735 130.596 45.6043 130.596 45.011C130.596 44.3937 130.851 44.2484 131.934 44.2484C133.017 44.2484 133.272 44.1032 133.272 43.4859C133.272 42.8156 133.017 42.7233 131.169 42.7233H129.067V46.3455ZM134.8 43.4859C134.8 44.0792 135.055 44.2484 135.947 44.2484H137.094V47.108C137.094 49.7133 137.162 49.9676 137.858 49.9676C138.554 49.9676 138.622 49.7133 138.622 47.108V44.2484H139.769C140.661 44.2484 140.916 44.0792 140.916 43.4859C140.916 42.787 140.661 42.7233 137.858 42.7233C135.055 42.7233 134.8 42.787 134.8 43.4859ZM143.045 43.3223C141.842 44.5226 142.377 46.2875 144.206 47.1534C144.919 47.4908 145.502 47.919 145.502 48.1047C145.502 48.5565 144.475 48.5332 143.591 48.0616C143.022 47.7573 142.829 47.8336 142.637 48.4394C142.259 49.6248 142.725 49.9676 144.714 49.9676C146.824 49.9676 147.528 49.3888 147.345 47.8031C147.252 46.9974 146.818 46.5147 145.567 45.8284C144.358 45.165 144.026 44.8062 144.334 44.4986C144.643 44.1905 144.959 44.2027 145.506 44.5439C146.494 45.1593 146.549 45.1471 147.057 44.2C147.396 43.5675 147.378 43.317 146.975 43.0619C146.119 42.5205 143.687 42.6818 143.045 43.3223ZM99.232 44.7372C97.6944 45.9333 98.3315 48.4425 100.173 48.4425C101.941 48.4425 102.739 45.8937 101.31 44.8139C100.433 44.1516 100.005 44.1356 99.232 44.7372ZM108.046 45.2016C108.046 46.2147 108.293 46.3493 109.153 45.8063C109.812 45.39 109.43 44.2484 108.631 44.2484C108.262 44.2484 108.046 44.6 108.046 45.2016ZM14.2687 46.3455C14.1361 46.6905 14.2668 46.9174 14.5982 46.9174C14.9295 46.9174 15.0602 46.6905 14.9276 46.3455C14.8065 46.0309 14.6582 45.7735 14.5982 45.7735C14.5382 45.7735 14.3899 46.0309 14.2687 46.3455ZM33.1349 46.323C33.1349 46.6497 33.3069 46.9174 33.5171 46.9174C33.7273 46.9174 33.8993 46.7561 33.8993 46.5586C33.8993 46.3611 33.7273 46.0938 33.5171 45.9642C33.3069 45.8346 33.1349 45.9962 33.1349 46.323Z" fill="#858585"/>
</svg>
