<svg width="43" height="18" viewBox="0 0 43 18" fill="none" xmlns="http://www.w3.org/2000/svg">
<path d="M13.4555 7.78702C13.2588 6.59224 12.2918 5.61023 10.5874 5.61023C9.80069 5.61023 9.22707 5.7739 8.71901 6.1176L7.834 7.29602C7.47344 6.33037 6.57203 5.61023 5.1134 5.61023C4.31034 5.61023 3.75311 5.7739 3.22866 6.1176L2.57309 7.19782V5.83937H0V14.5629H2.57309V10.0293C2.57309 8.2453 3.04837 7.37785 4.03172 7.37785C4.86757 7.37785 5.31007 7.86886 5.4248 8.7363C5.47396 9.17821 5.49035 9.65285 5.49035 10.062V14.5629H8.04705V10.0293C8.04705 8.2453 8.53873 7.37785 9.52207 7.37785C10.3415 7.37785 10.8004 7.86886 10.8988 8.7363C10.9479 9.17821 10.9643 9.65285 10.9643 10.062V14.5629H13.5374V9.40734C13.5374 8.70357 13.521 8.22893 13.4555 7.78702Z" fill="#292929"/>
<path d="M18.6235 11.2241L21.1638 14.563H24.3597L20.5246 9.86568L24.3105 5.83943H21.2621L17.9515 9.66928V2.53333H15.3784V14.563H17.9515V11.9606L18.6235 11.2241ZM33.1283 10.0457C33.1283 7.72162 31.6861 5.6103 28.8999 5.6103C26.1302 5.6103 24.3765 7.60705 24.3765 10.2258C24.3765 13.3027 26.294 14.7921 28.736 14.7921C30.8666 14.7921 32.5055 13.7283 32.9808 11.7151H30.4405C30.293 12.5335 29.6866 13.0245 28.7852 13.0245C27.8182 13.0245 27.0971 12.5335 26.9496 10.8641H33.0791C33.1119 10.5531 33.1283 10.2749 33.1283 10.0457ZM28.7852 7.37792C29.7358 7.37792 30.3094 8.01623 30.4569 9.24374H27.0152C27.2282 7.95076 27.8674 7.37792 28.7852 7.37792ZM42.8545 5.83943H40.052L38.0689 12.5826L36.0694 5.83943H33.2013L36.7905 14.9558L36.6758 15.234C36.348 15.9869 35.8563 16.2488 35.1188 16.2488C34.8566 16.2488 34.6272 16.2488 34.3977 16.216V17.9345C34.7583 17.9836 35.0697 18 35.5122 18C37.4133 18 38.3639 17.2799 39.3636 14.743L42.8545 5.83943Z" fill="#292929"/>
<path d="M30.7835 2.18228C30.7016 1.68445 30.3328 1.30256 29.6841 1.30256C29.3631 1.30256 29.1037 1.36393 28.9193 1.51396L28.5983 1.97769C28.4617 1.58216 28.1067 1.30256 27.5535 1.30256C27.2326 1.30256 26.9731 1.36393 26.7887 1.51396L26.5565 1.92313V1.39803H25.9692V5.01238H26.5565V3.22566C26.5565 2.12772 26.8911 1.76629 27.3487 1.76629C27.7584 1.76629 28.0179 1.96405 28.0725 2.37322C28.093 2.55735 28.0998 2.75512 28.0998 3.07563V5.01238H28.6871V3.22566C28.6871 2.12772 29.0217 1.76629 29.4792 1.76629C29.889 1.76629 30.1485 1.96405 30.2031 2.37322C30.2236 2.55735 30.2304 2.75512 30.2304 3.07563V5.01238H30.8177V2.80285C30.8177 2.50961 30.8109 2.3664 30.7835 2.18228ZM34.5084 3.10291C34.5084 2.04589 33.9553 1.30256 32.9583 1.30256C31.9681 1.30256 31.2374 2.04589 31.2374 3.21884C31.2374 4.4941 31.9408 5.10785 32.8832 5.10785C33.6275 5.10785 34.3172 4.71914 34.4606 3.84624H33.846C33.7641 4.36453 33.3817 4.65776 32.9105 4.65776C32.3779 4.65776 31.9272 4.33725 31.8725 3.38251H34.4948C34.5084 3.25294 34.5084 3.15747 34.5084 3.10291ZM32.9446 1.75265C33.5388 1.75265 33.8597 2.18228 33.9143 2.93242H31.8794C31.9476 2.16182 32.371 1.75265 32.9446 1.75265ZM38.1743 0H37.5871V1.89586L37.3481 1.54124C37.1637 1.39121 36.7813 1.30256 36.4808 1.30256C35.5453 1.30256 34.7121 1.92313 34.7121 3.25976C34.7121 4.31679 35.2994 5.10785 36.3579 5.10785C36.7266 5.10785 37.1091 4.99192 37.3139 4.82143L37.5871 4.43272V5.01238H38.1743V0ZM36.4467 4.65776C35.7228 4.65776 35.3541 4.00991 35.3541 3.19157C35.3541 2.24365 35.8457 1.75265 36.4808 1.75265C36.9998 1.75265 37.5871 2.10726 37.5871 3.04154V3.2393C37.5871 4.27587 37.0476 4.65776 36.4467 4.65776ZM39.2344 0.211406C39.0227 0.211406 38.8588 0.375074 38.8588 0.58648C38.8588 0.797885 39.0227 0.961581 39.2344 0.961581C39.4461 0.961581 39.61 0.797885 39.61 0.58648C39.61 0.375074 39.4461 0.211406 39.2344 0.211406ZM39.528 5.01238V1.39803H38.9407V5.01238H39.528ZM42.3707 5.01238H42.958C42.9034 4.61003 42.8897 4.36453 42.8897 4.09174V2.73466C42.8897 2.57781 42.8829 2.4005 42.8692 2.25729C42.8078 1.66399 42.4458 1.30256 41.5854 1.30256C40.7864 1.30256 40.247 1.74583 40.1923 2.51643H40.8069C40.8479 2.01861 41.0937 1.75265 41.5854 1.75265C42.0702 1.75265 42.2614 1.97087 42.2888 2.30503C42.3024 2.44142 42.3024 2.58463 42.3024 2.74148V2.83695H42.0702C40.6499 2.83695 40.0353 3.25976 40.0353 4.07811C40.0353 4.74642 40.5474 5.10785 41.203 5.10785C41.5513 5.10785 41.8654 5.0533 42.1112 4.88281L42.3092 4.4941L42.3707 5.01238ZM41.401 4.65776C40.9572 4.65776 40.6772 4.46682 40.6772 4.03037C40.6772 3.40979 41.3054 3.19839 42.3024 3.2734V3.64166C42.3024 4.29633 41.9473 4.65776 41.401 4.65776Z" fill="#292929"/>
</svg>
