<svg width="16" height="16" viewBox="0 0 16 16" fill="none" xmlns="http://www.w3.org/2000/svg">
<g clip-path="url(#clip0_851_806)">
<path d="M15.9924 12.6241C16.0263 12.8839 15.9471 13.1097 15.7552 13.3016L13.5025 15.5374C13.4008 15.6503 13.2682 15.7464 13.1044 15.8253C12.9407 15.9044 12.7798 15.9552 12.6218 15.9778C12.6105 15.9778 12.5765 15.9807 12.5201 15.9863C12.4637 15.9919 12.3903 15.9948 12.2999 15.9948C12.0853 15.9948 11.7381 15.9581 11.2582 15.8847C10.7783 15.8113 10.1911 15.6306 9.49669 15.3427C8.80212 15.0547 8.01453 14.6227 7.13378 14.0469C6.25303 13.4711 5.31576 12.6806 4.32206 11.6756C3.53162 10.8964 2.87668 10.1512 2.35724 9.43978C1.83781 8.72836 1.42 8.07059 1.10383 7.46647C0.78762 6.86234 0.550487 6.31468 0.392399 5.82348C0.23431 5.33227 0.127036 4.90882 0.0705753 4.55312C0.0141151 4.19742 -0.00846903 3.91794 0.00282301 3.71469C0.0141151 3.51143 0.0197611 3.39851 0.0197611 3.37592C0.0423452 3.21784 0.0931594 3.05692 0.172204 2.89319C0.251248 2.72946 0.34723 2.59677 0.460151 2.49515L2.71291 0.242382C2.871 0.0842934 3.05168 0.00524902 3.25493 0.00524902C3.40173 0.00524902 3.53159 0.0475942 3.64451 0.132285C3.75743 0.216975 3.85341 0.321426 3.93246 0.445639L5.74483 3.88407C5.84646 4.06474 5.87469 4.26235 5.82952 4.4769C5.78435 4.69145 5.68837 4.87212 5.54157 5.01892L4.71161 5.84888C4.68902 5.87147 4.66926 5.90817 4.65232 5.95898C4.63539 6.0098 4.62692 6.05214 4.62692 6.08602C4.67208 6.32315 4.77371 6.59416 4.9318 6.89904C5.06731 7.17005 5.27621 7.50035 5.55851 7.88992C5.84081 8.2795 6.24168 8.72833 6.76111 9.23647C7.26925 9.75596 7.72094 10.1596 8.11616 10.4476C8.5113 10.7354 8.8417 10.9472 9.10706 11.0827C9.37243 11.2183 9.57568 11.3001 9.71681 11.3283L9.92848 11.3706C9.95106 11.3706 9.98784 11.3621 10.0386 11.3452C10.0894 11.3283 10.1261 11.3085 10.1487 11.2859L11.1142 10.3035C11.3175 10.1229 11.5546 10.0325 11.8256 10.0325C12.0176 10.0325 12.17 10.0664 12.2829 10.1342H12.2998L15.5688 12.0651C15.806 12.212 15.9472 12.3983 15.9924 12.6241Z" fill="#8E8E8E"/>
</g>
<defs>
<clipPath id="clip0_851_806">
<rect width="16" height="16" fill="white"/>
</clipPath>
</defs>
</svg>
