<svg width="24" height="24" viewBox="0 0 24 24" fill="none" xmlns="http://www.w3.org/2000/svg">
<path d="M9 16.1998L5.5 12.6998C5.40848 12.6071 5.29948 12.5336 5.17932 12.4834C5.05915 12.4332 4.93022 12.4073 4.8 12.4073C4.66977 12.4073 4.54084 12.4332 4.42068 12.4834C4.30052 12.5336 4.19152 12.6071 4.1 12.6998C4.00736 12.7913 3.93381 12.9003 3.88361 13.0204C3.83341 13.1406 3.80756 13.2695 3.80756 13.3998C3.80756 13.53 3.83341 13.6589 3.88361 13.7791C3.93381 13.8992 4.00736 14.0082 4.1 14.0998L8.29 18.2898C8.68 18.6798 9.31 18.6798 9.7 18.2898L20.3 7.69976C20.3926 7.60824 20.4662 7.49924 20.5164 7.37908C20.5666 7.25892 20.5924 7.12999 20.5924 6.99976C20.5924 6.86954 20.5666 6.74061 20.5164 6.62045C20.4662 6.50029 20.3926 6.39129 20.3 6.29976C20.2085 6.20712 20.0995 6.13357 19.9793 6.08337C19.8592 6.03317 19.7302 6.00732 19.6 6.00732C19.4698 6.00732 19.3408 6.03317 19.2207 6.08337C19.1005 6.13357 18.9915 6.20712 18.9 6.29976L9 16.1998Z" fill="black"/>
</svg>
