<svg width="29" height="20" viewBox="0 0 29 20" fill="none" xmlns="http://www.w3.org/2000/svg">
<g id="youtube_logo_icon_168737 1" clip-path="url(#clip0_851_795)">
<path id="Vector" d="M27.9502 3.1233C27.7858 2.51732 27.4658 1.96489 27.0218 1.52091C26.5778 1.07694 26.0254 0.756863 25.4194 0.592498C23.2007 -0.0133055 14.2703 -0.0133057 14.2703 -0.0133057C14.2703 -0.0133057 5.3395 0.00455162 3.1203 0.610355C2.51431 0.77472 1.96189 1.09479 1.51791 1.53877C1.07393 1.98275 0.75386 2.53517 0.589495 3.14116C0.00244141 5.36036 0.00244141 10.0001 0.00244141 10.0001C0.00244141 10.0001 0.00244141 14.6398 0.607799 16.8769C0.772164 17.4829 1.09224 18.0353 1.53621 18.4793C1.98019 18.9232 2.53262 19.2433 3.1386 19.4077C5.35735 20.0135 14.2882 20.0135 14.2882 20.0135C14.2882 20.0135 23.219 20.0135 25.4382 19.4081C26.0441 19.2438 26.5966 18.9237 27.0405 18.4797C27.4845 18.0357 27.8046 17.4833 27.969 16.8773C28.5739 14.6581 28.5739 10.0001 28.5739 10.0001C28.5739 10.0001 28.556 5.36036 27.9502 3.1233Z" fill="#8E8E8E"/>
<path id="Vector_2" d="M11.4277 14.2911L18.8362 10.0001L11.4272 5.70898L11.4277 14.2911Z" fill="white"/>
</g>
<defs>
<clipPath id="clip0_851_795">
<rect width="28.5714" height="20" fill="white" transform="translate(0.000488281)"/>
</clipPath>
</defs>
</svg>
